<?xml version="1.0" encoding="UTF-8" standalone="no"?>
<!-- Created with Inkscape (http://www.inkscape.org/) -->

<svg
   xmlns:dc="http://purl.org/dc/elements/1.1/"
   xmlns:cc="http://creativecommons.org/ns#"
   xmlns:rdf="http://www.w3.org/1999/02/22-rdf-syntax-ns#"
   xmlns:svg="http://www.w3.org/2000/svg"
   xmlns="http://www.w3.org/2000/svg"
   xmlns:sodipodi="http://sodipodi.sourceforge.net/DTD/sodipodi-0.dtd"
   xmlns:inkscape="http://www.inkscape.org/namespaces/inkscape"
   width="1000"
   height="1000"
   viewBox="0 0 999.99999 1000"
   id="svg2"
   version="1.1"
   inkscape:version="0.91 r13725"
   sodipodi:docname="calories.svg">
  <defs
     id="defs4" />
  <sodipodi:namedview
     id="base"
     pagecolor="#b9ffff"
     bordercolor="#d96666"
     borderopacity="1"
     inkscape:pageopacity="0"
     inkscape:pageshadow="2"
     inkscape:zoom="0.98994949"
     inkscape:cx="338.81503"
     inkscape:cy="403.68378"
     inkscape:document-units="px"
     inkscape:current-layer="layer1"
     showgrid="true"
     inkscape:window-width="1920"
     inkscape:window-height="1056"
     inkscape:window-x="0"
     inkscape:window-y="24"
     inkscape:window-maximized="1"
     units="px"
     inkscape:showpageshadow="false"
     gridtolerance="10"
     inkscape:snap-tangential="true"
     inkscape:snap-perpendicular="true">
    <inkscape:grid
       type="xygrid"
       id="grid4155"
       empspacing="10"
       spacingx="9.9999999"
       spacingy="10" />
  </sodipodi:namedview>
  <metadata
     id="metadata7">
    <rdf:RDF>
      <cc:Work
         rdf:about="">
        <dc:format>image/svg+xml</dc:format>
        <dc:type
           rdf:resource="http://purl.org/dc/dcmitype/StillImage" />
        <dc:title />
      </cc:Work>
    </rdf:RDF>
  </metadata>
  <g
     inkscape:label="Layer 1"
     inkscape:groupmode="layer"
     id="layer1"
     transform="translate(0,-52.362161)">
    <path
       id="path5071"
       d="m 814.34864,940.73252 -627.92171,0 c -7.83626,0 -15.10299,4.08395 -19.17305,10.77073 -4.08395,6.6972 -4.37393,15.03353 -0.78831,21.99466 24.44468,47.34229 73.26806,77.08809 126.54872,77.08809 l 414.74699,0 c 53.28066,0 102.10231,-29.7458 126.54873,-77.08809 3.58561,-6.96286 3.2939,-15.29746 -0.78832,-21.99466 -4.06832,-6.68678 -11.33679,-10.77073 -19.17305,-10.77073 z"
       inkscape:connector-curvature="0"
       style="fill:#ffffff;fill-opacity:1" />
    <path
       id="path5077"
       d="M 839.89334,232.27915 C 830.17659,205.0389 800.19461,190.7659 772.88144,200.45487 L 80.453399,447.17114 c -31.64543,11.26908 -48.14446,46.08339 -36.87712,77.71145 10.2585,28.82035 40.33598,45.52949 70.238091,39.0094 l 257.62071,-56.14568 c 20.41976,-4.44164 37.94326,-17.46966 48.10279,-35.75369 10.16126,-18.29965 11.96188,-40.06164 4.91394,-59.77296 L 805.30129,300.2478 c 13.82675,-4.08395 25.38753,-13.6618 31.94756,-26.55091 6.53397,-12.83354 7.48898,-27.79762 2.64449,-41.41774 z"
       inkscape:connector-curvature="0"
       style="fill:#ffffff;fill-opacity:1" />
    <path
       id="path5098"
       d="m 805.97237,734.70595 c 2.11317,-4.53715 16.55286,-23.67721 29.62603,-43.51703 0.0174,-0.0139 0.0226,-0.0278 0.0295,-0.0399 2.9501,-4.47638 5.82554,-8.98574 8.48219,-13.37356 0.0747,-0.12328 0.14933,-0.2483 0.224,-0.37158 0.43062,-0.71539 31.00991,-49.74019 -12.54531,-29.88649 0,0.003 0,0.009 0,0.0122 -8.18353,4.19682 -18.59136,10.45471 -31.67842,19.22514 -28.54774,19.13658 -86.61905,47.14952 -86.61905,47.14952 0,0 -10.1057,5.45916 -16.76991,1.30054 -33.67872,-21.01013 -82.74867,-58.33177 -147.43905,-79.1127 -1.07829,-0.34728 -2.44481,-1.16858 -0.58689,-2.88933 l 27.70386,-19.37447 c 0,0 2.17046,-1.87528 -0.61642,-2.78167 -13.71041,-4.46769 -70.81457,-23.61643 -120.22658,-6.01133 -10.06577,3.58561 -18.32744,6.53051 -25.12014,8.95101 -2.92058,1.04183 -5.88804,2.26597 -11.80561,2.99698 -134.74962,4.60834 -225.87804,103.52266 -225.87804,142.65013 0,26.2592 14.1584,43.87993 65.89021,68.37497 1.03836,-0.16496 8.93539,5.5043 26.28351,0.29171 4.65001,-1.39779 37.67412,-13.83544 38.98682,-14.39629 1.31617,-0.60078 2.17047,-0.8977 2.71569,-0.80915 0.70149,0.11113 1.2172,1.6704 1.21373,1.98642 -0.1094,9.35385 -17.64157,16.92965 -27.59621,25.24167 -1.70859,0.797 -2.16699,4.76462 0.82478,6.04953 0.003,0 35.15464,18.84661 90.82455,24.70688 4.50069,0.47403 63.09986,38.0214 122.19043,27.94869 31.253,-5.32894 46.12505,-7.15213 52.91254,-9.02394 5.92451,-1.63219 3.09596,-3.51095 3.09596,-3.51095 l -29.62082,-23.60081 c -2.00551,-2.22429 -0.38374,-3.93289 1.29534,-4.40865 65.77734,-18.71639 117.78524,-48.22086 148.75869,-73.49727 4.17077,-3.40503 15.01096,4.68995 22.74998,8.60026 25.70008,12.98288 132.37774,56.9583 141.169,47.6496 0.75706,-0.78484 0.81089,-1.95342 0.0399,-3.55957 -15.01091,-31.5309 -69.26567,-58.42561 -48.50731,-102.97056 z M 301.8507,731.66903 c -9.48929,0 -17.18143,-7.83453 -17.18143,-17.49745 0,-9.66293 7.69214,-17.49571 17.18143,-17.49571 9.48929,0 17.18317,7.83278 17.18317,17.49571 0,9.66292 -7.69388,17.49745 -17.18317,17.49745 z m 76.89188,99.55157 c -1.05745,0.9498 -2.02114,2.38404 -1.46202,0.32123 0,0 26.78531,-40.30126 30.25806,-92.39424 2.60109,-39.04065 -23.4098,-86.85346 -23.4098,-86.85346 0,0 0.0503,-1.39604 0.96369,-0.29345 9.26008,11.19962 100.43712,83.23833 -6.34993,179.21992 z"
       inkscape:connector-curvature="0"
       style="fill:#ffffff;fill-opacity:1" />
    <g
       id="g5144"
       style="fill:#ffffff;fill-opacity:1"
       transform="matrix(0.99032508,0.13876686,-0.13876686,0.99032508,61.870988,-26.59401)">
      <path
         id="path5142"
         d="m 180.85387,146.80109 c -2.60649,0.24006 -5.18815,0.72064 -7.70726,1.43367 -2.51911,0.71304 -4.97527,1.65858 -7.32951,2.8245 -2.35423,1.16593 -4.60529,2.55276 -6.71714,4.15151 -2.11185,1.59874 -4.08272,3.40762 -5.87469,5.4191 -1.79197,2.01149 -3.40532,4.22523 -4.79991,6.62941 -1.39459,2.40416 -2.50544,4.88893 -3.34392,7.41582 -0.83847,2.52688 -1.40604,5.09676 -1.70932,7.67309 -0.30329,2.57633 -0.34277,5.15724 -0.13177,7.70974 0.21098,2.55248 0.6732,5.07472 1.37752,7.5301 0.70431,2.45539 1.65079,4.84485 2.82751,7.12985 1.17673,2.28502 2.58333,4.46764 4.21154,6.50901 1.62822,2.04135 3.47751,3.9409 5.53628,5.66534 2.05879,1.72444 4.32662,3.27335 6.79502,4.6076 l 370.87941,178.43629 c 1.34662,0.6486 2.52923,1.50256 3.52381,2.50792 0.99457,1.00534 1.80045,2.16173 2.39295,3.41569 0.59248,1.25395 0.97133,2.60489 1.11171,3.9993 0.14039,1.39441 0.0419,2.83201 -0.31983,4.25872 -0.74335,2.90039 -1.35675,5.80794 -1.84329,8.71744 -0.48655,2.90948 -0.8445,5.82203 -1.08016,8.72719 -0.23567,2.90515 -0.34841,5.80419 -0.33914,8.69158 0.009,2.88741 0.14039,5.763 0.38866,8.61922 0.24826,2.85619 0.61301,5.69204 1.09433,8.5036 0.4813,2.81156 1.07834,5.59778 1.78675,8.35127 0.70842,2.75349 1.52971,5.47585 2.4593,8.15784 0.9296,2.68201 1.96712,5.32418 3.11194,7.92124 1.14482,2.59705 2.395,5.14916 3.74911,7.64784 1.35409,2.49868 2.81342,4.94435 4.37085,7.33122 1.55747,2.38688 3.21338,4.71407 4.96824,6.97571 1.75486,2.26163 3.60829,4.45617 5.55462,6.57913 1.94633,2.12293 3.987,4.17494 6.11885,6.14578 2.13184,1.97084 4.354,3.86176 6.66544,5.66707 2.31141,1.8053 4.71148,3.52313 7.19656,5.14944 2.48506,1.6263 5.05499,3.16116 7.70776,4.59506 l 163.51849,88.3862 15.77945,-27.20476 -151.11145,-81.67799 c -1.55366,-0.8398 -2.85552,-1.9481 -3.87994,-3.23183 -1.0244,-1.28375 -1.77024,-2.74492 -2.21282,-4.28916 -0.44259,-1.54424 -0.58154,-3.17145 -0.38972,-4.79276 0.19181,-1.62132 0.71291,-3.23638 1.5917,-4.75135 l 19.80413,-34.14055 c 0.87878,-1.51496 2.0321,-2.78787 3.36382,-3.79302 1.33174,-1.00516 2.84394,-1.74367 4.43913,-2.18643 1.59519,-0.44276 3.27325,-0.58942 4.94243,-0.41721 1.66917,0.17223 3.32906,0.66407 4.88273,1.50387 l 151.1092,81.68015 12.93969,-22.30739 -151.10921,-81.68014 c -1.55367,-0.83981 -2.85552,-1.94811 -3.87994,-3.23185 -1.02441,-1.28375 -1.7725,-2.74275 -2.21506,-4.28698 -0.44259,-1.54424 -0.58152,-3.17362 -0.38972,-4.79493 0.19182,-1.62132 0.71516,-3.23422 1.59393,-4.74919 l 19.79065,-34.11883 c 0.87878,-1.51495 2.0321,-2.78786 3.36382,-3.79303 1.33172,-1.00515 2.8417,-1.74365 4.43689,-2.18642 1.59519,-0.44277 3.2755,-0.59158 4.94468,-0.41937 1.66916,0.17221 3.32906,0.66622 4.88271,1.50603 l 151.10921,81.68015 15.79294,-27.22646 -163.51631,-88.38621 c -2.65417,-1.43466 -5.35366,-2.74783 -8.08996,-3.94381 -2.73631,-1.19599 -5.51052,-2.27529 -8.31399,-3.23473 -2.80345,-0.95947 -5.63547,-1.80084 -8.49112,-2.52589 -2.85565,-0.72503 -5.7352,-1.33307 -8.62808,-1.82583 -2.89285,-0.49276 -5.80076,-0.86988 -8.71587,-1.13249 -2.91511,-0.26264 -5.83666,-0.41126 -8.75906,-0.44588 -2.92238,-0.0347 -5.84508,0.0454 -8.75978,0.23629 -2.9147,0.19125 -5.82159,0.49452 -8.71364,0.90954 -2.89203,0.41501 -5.76842,0.94167 -8.62282,1.5783 -2.85439,0.63664 -5.68779,1.38427 -8.48958,2.24039 -2.80178,0.85612 -5.573,1.82011 -8.30722,2.89359 -2.7342,1.07348 -5.43075,2.25575 -8.08242,3.54445 -2.65167,1.28871 -5.25884,2.68468 -7.81299,4.18647 -2.55414,1.5018 -5.05499,3.10904 -7.49665,4.8218 -2.44166,1.71275 -4.82368,3.531 -7.13788,5.4526 -2.31421,1.92157 -4.56046,3.94626 -6.73223,6.07453 -1.07104,1.04333 -2.28707,1.87622 -3.59022,2.49036 -1.30317,0.61413 -2.69319,1.00963 -4.10894,1.17809 -1.41572,0.16844 -2.85936,0.11029 -4.26811,-0.18336 -1.40876,-0.29371 -2.7834,-0.82153 -4.06561,-1.59393 L 203.92333,151.43081 c -2.40369,-1.29926 -4.89775,-2.32725 -7.44654,-3.09333 -2.54877,-0.76608 -5.15163,-1.269 -7.76802,-1.52197 -2.61639,-0.25297 -5.24843,-0.25449 -7.85493,-0.0145 z"
         style="opacity:1;fill:#ffffff;fill-opacity:1;stroke:none;stroke-width:10;stroke-linecap:butt;stroke-linejoin:round;stroke-miterlimit:4;stroke-dasharray:none;stroke-dashoffset:0;stroke-opacity:1"
         inkscape:connector-curvature="0" />
    </g>
  </g>
</svg>
