<?xml version="1.0" encoding="UTF-8" standalone="no"?>
<!-- Created with Inkscape (http://www.inkscape.org/) -->

<svg
   xmlns:dc="http://purl.org/dc/elements/1.1/"
   xmlns:cc="http://creativecommons.org/ns#"
   xmlns:rdf="http://www.w3.org/1999/02/22-rdf-syntax-ns#"
   xmlns:svg="http://www.w3.org/2000/svg"
   xmlns="http://www.w3.org/2000/svg"
   xmlns:sodipodi="http://sodipodi.sourceforge.net/DTD/sodipodi-0.dtd"
   xmlns:inkscape="http://www.inkscape.org/namespaces/inkscape"
   width="2000"
   height="2000"
   viewBox="0 0 2000 2000"
   id="svg2"
   version="1.1"
   inkscape:version="0.91 r13725"
   sodipodi:docname="chorechart.svg">
  <defs
     id="defs4">
    <clipPath
       clipPathUnits="userSpaceOnUse"
       id="clipPath4378">
      <rect
         style="color:#000000;clip-rule:nonzero;display:inline;overflow:visible;visibility:visible;opacity:1;isolation:auto;mix-blend-mode:normal;color-interpolation:sRGB;color-interpolation-filters:linearRGB;solid-color:#000000;solid-opacity:1;fill:#0b1b41;fill-opacity:1;fill-rule:evenodd;stroke:none;stroke-width:1px;stroke-linecap:butt;stroke-linejoin:miter;stroke-miterlimit:4;stroke-dasharray:none;stroke-dashoffset:0;stroke-opacity:1;color-rendering:auto;image-rendering:auto;shape-rendering:auto;text-rendering:auto;enable-background:accumulate"
         id="rect4380"
         width="1000"
         height="1600"
         x="0"
         y="2.2617187e-05"
         ry="0" />
    </clipPath>
    <clipPath
       clipPathUnits="userSpaceOnUse"
       id="clipPath4382">
      <rect
         style="color:#000000;clip-rule:nonzero;display:inline;overflow:visible;visibility:visible;opacity:1;isolation:auto;mix-blend-mode:normal;color-interpolation:sRGB;color-interpolation-filters:linearRGB;solid-color:#000000;solid-opacity:1;fill:#0b1b41;fill-opacity:1;fill-rule:evenodd;stroke:none;stroke-width:1px;stroke-linecap:butt;stroke-linejoin:miter;stroke-miterlimit:4;stroke-dasharray:none;stroke-dashoffset:0;stroke-opacity:1;color-rendering:auto;image-rendering:auto;shape-rendering:auto;text-rendering:auto;enable-background:accumulate"
         id="rect4384"
         width="1000"
         height="1600"
         x="0"
         y="0"
         ry="0" />
    </clipPath>
  </defs>
  <sodipodi:namedview
     id="base"
     pagecolor="#b9ffff"
     bordercolor="#d96666"
     borderopacity="1"
     inkscape:pageopacity="0"
     inkscape:pageshadow="2"
     inkscape:zoom="0.5"
     inkscape:cx="1059.8145"
     inkscape:cy="1303.4736"
     inkscape:document-units="px"
     inkscape:current-layer="svg2"
     showgrid="true"
     inkscape:window-width="1920"
     inkscape:window-height="1056"
     inkscape:window-x="0"
     inkscape:window-y="24"
     inkscape:window-maximized="1"
     units="px"
     inkscape:showpageshadow="false"
     gridtolerance="10"
     inkscape:snap-tangential="true"
     inkscape:snap-perpendicular="true"
     showguides="true"
     inkscape:guide-bbox="true">
    <sodipodi:guide
       position="782,417"
       orientation="0,1"
       id="guide4275" />
    <sodipodi:guide
       position="1175,1428.5"
       orientation="0,1"
       id="guide4277" />
  </sodipodi:namedview>
  <metadata
     id="metadata7">
    <rdf:RDF>
      <cc:Work
         rdf:about="">
        <dc:format>image/svg+xml</dc:format>
        <dc:type
           rdf:resource="http://purl.org/dc/dcmitype/StillImage" />
        <dc:title></dc:title>
      </cc:Work>
    </rdf:RDF>
  </metadata>
  <g
     inkscape:groupmode="layer"
     id="layer2"
     inkscape:label="background"
     style="display:inline"
     transform="translate(0,1000)"
     sodipodi:insensitive="true">
    <rect
       style="color:#000000;clip-rule:nonzero;display:inline;overflow:visible;visibility:visible;opacity:1;isolation:auto;mix-blend-mode:normal;color-interpolation:sRGB;color-interpolation-filters:linearRGB;solid-color:#000000;solid-opacity:1;fill:#0b1b41;fill-opacity:1;fill-rule:evenodd;stroke:none;stroke-width:1px;stroke-linecap:butt;stroke-linejoin:miter;stroke-miterlimit:4;stroke-dasharray:none;stroke-dashoffset:0;stroke-opacity:1;color-rendering:auto;image-rendering:auto;shape-rendering:auto;text-rendering:auto;enable-background:accumulate"
       id="rect4266"
       width="1997.1428"
       height="2000"
       x="0"
       y="-1000"
       ry="0" />
  </g>
  <g
     inkscape:label="glow"
     inkscape:groupmode="layer"
     id="layer1"
     transform="translate(0,947.63784)"
     style="display:inline"
     sodipodi:insensitive="true">
    <path
       style="fill:#0d3076;fill-opacity:0.28985506;fill-rule:evenodd;stroke:none;stroke-width:1px;stroke-linecap:butt;stroke-linejoin:miter;stroke-opacity:1"
       d="M 1000,0 A 1000,1000 0 0 0 0,1000 1000,1000 0 0 0 1000,2000 1000,1000 0 0 0 2000,1000 1000,1000 0 0 0 1000,0 Z m 0,600 a 400,400 0 0 1 400,400 400,400 0 0 1 -400,400 400,400 0 0 1 -400,-400 400,400 0 0 1 400,-400 z"
       id="path4222"
       transform="translate(0,-947.63784)"
       inkscape:connector-curvature="0" />
    <path
       style="fill:#0d3076;fill-opacity:0.28985506;fill-rule:evenodd;stroke:none;stroke-width:1px;stroke-linecap:butt;stroke-linejoin:miter;stroke-opacity:1"
       d="m 1000,100 a 900,900 0 0 0 -900,900 900,900 0 0 0 900,900 900,900 0 0 0 900,-900 900,900 0 0 0 -900,-900 z m 0,500 a 400,400 0 0 1 400,400 400,400 0 0 1 -400,400 400,400 0 0 1 -400,-400 400,400 0 0 1 400,-400 z"
       id="path4224"
       transform="translate(0,-947.63784)"
       inkscape:connector-curvature="0" />
    <path
       style="fill:#0d3076;fill-opacity:0.28985506;fill-rule:evenodd;stroke:none;stroke-width:1px;stroke-linecap:butt;stroke-linejoin:miter;stroke-opacity:1"
       d="m 1000,300 a 700,700 0 0 0 -700,700 700,700 0 0 0 700,700 700,700 0 0 0 700,-700 700,700 0 0 0 -700,-700 z m 0,300 a 400,400 0 0 1 400,400 400,400 0 0 1 -400,400 400,400 0 0 1 -400,-400 400,400 0 0 1 400,-400 z"
       id="path4226"
       transform="translate(0,-947.63784)"
       inkscape:connector-curvature="0" />
    <circle
       transform="translate(0,-547.63784)"
       style="fill:#0d3076;fill-opacity:1;fill-rule:evenodd;stroke:#000000;stroke-width:1px;stroke-linecap:butt;stroke-linejoin:miter;stroke-opacity:1"
       id="path4230"
       cx="1000"
       cy="600"
       r="300" />
  </g>
  <g
     inkscape:groupmode="layer"
     id="layer3"
     inkscape:label="thing"
     transform="translate(0,400)"
     style="display:inline" />
  <path
     style="color:#000000;clip-rule:nonzero;display:inline;overflow:visible;visibility:visible;opacity:1;isolation:auto;mix-blend-mode:normal;color-interpolation:sRGB;color-interpolation-filters:linearRGB;solid-color:#000000;solid-opacity:1;fill:#ef1b3e;fill-opacity:1;fill-rule:evenodd;stroke:#ffffff;stroke-width:1.53095293px;stroke-linecap:butt;stroke-linejoin:miter;stroke-miterlimit:4;stroke-dasharray:none;stroke-dashoffset:0;stroke-opacity:1;color-rendering:auto;image-rendering:auto;shape-rendering:auto;text-rendering:auto;enable-background:accumulate"
     d="M 932.17398,67.79945 1546.5058,65.35383 C 1652.3176,64.9326 1758.66,190.62657 1732.0906,293.0492 l -386.3528,1489.3575 c -26.5695,102.4227 -134.6189,184.4896 -240.4316,184.4896 l -681.9937,0 c -105.81278,0 -168.95024,-82.2823 -141.56389,-184.4896 L 691.74242,252.28902 C 719.12876,150.0818 826.36205,68.22068 932.17398,67.79945 Z"
     id="rect4217-7"
     inkscape:connector-curvature="0"
     sodipodi:nodetypes="sssssssss" />
  <path
     inkscape:connector-curvature="0"
     style="color:#000000;clip-rule:nonzero;display:inline;overflow:visible;visibility:visible;opacity:1;isolation:auto;mix-blend-mode:normal;color-interpolation:sRGB;color-interpolation-filters:linearRGB;solid-color:#000000;solid-opacity:1;fill:#ef1b3e;fill-opacity:1;fill-rule:evenodd;stroke:#ffffff;stroke-width:1.53095281px;stroke-linecap:butt;stroke-linejoin:miter;stroke-miterlimit:4;stroke-dasharray:none;stroke-dashoffset:0;stroke-opacity:1;color-rendering:auto;image-rendering:auto;shape-rendering:auto;text-rendering:auto;enable-background:accumulate"
     d="m 932.13381,67.81262 592.06979,-2.30574 c 105.8119,-0.41209 168.9501,82.28235 141.5638,184.48956 L 1255.7735,1780.1142 c -27.3863,102.2072 -157.677,98.765 -263.48887,99.1771 l -592.06976,2.3058 c -105.81196,0.412 -145.89278,3.03 -118.50642,-99.1771 L 691.70226,252.30217 C 719.0886,150.09497 826.32184,68.22469 932.13381,67.81262 Z"
     id="rect4217-7-5"
     sodipodi:nodetypes="sssssssss" />
  <path
     style="color:#000000;clip-rule:nonzero;display:inline;overflow:visible;visibility:visible;opacity:1;isolation:auto;mix-blend-mode:normal;color-interpolation:sRGB;color-interpolation-filters:linearRGB;solid-color:#000000;solid-opacity:1;fill:#ef1b3e;fill-opacity:1;fill-rule:evenodd;stroke:#ffffff;stroke-width:1.53095281px;stroke-linecap:butt;stroke-linejoin:miter;stroke-miterlimit:4;stroke-dasharray:none;stroke-dashoffset:0;stroke-opacity:1;color-rendering:auto;image-rendering:auto;shape-rendering:auto;text-rendering:auto;enable-background:accumulate"
     d="m 754.42045,209.38728 856.73975,3.43338 -416.7069,1545.66424 -841.96491,0.6341 z"
     id="rect4270"
     inkscape:connector-curvature="0"
     sodipodi:nodetypes="ccccc" />
</svg>
