<?xml version="1.0" encoding="UTF-8" standalone="no"?>
<!-- Created with Inkscape (http://www.inkscape.org/) -->

<svg
   xmlns:dc="http://purl.org/dc/elements/1.1/"
   xmlns:cc="http://creativecommons.org/ns#"
   xmlns:rdf="http://www.w3.org/1999/02/22-rdf-syntax-ns#"
   xmlns:svg="http://www.w3.org/2000/svg"
   xmlns="http://www.w3.org/2000/svg"
   xmlns:sodipodi="http://sodipodi.sourceforge.net/DTD/sodipodi-0.dtd"
   xmlns:inkscape="http://www.inkscape.org/namespaces/inkscape"
   width="1000"
   height="1600"
   viewBox="0 0 999.99999 1600"
   id="svg2"
   version="1.1"
   inkscape:version="0.91 r13725"
   sodipodi:docname="clicky.svg">
  <defs
     id="defs4">
    <clipPath
       clipPathUnits="userSpaceOnUse"
       id="clipPath4378">
      <rect
         style="color:#000000;clip-rule:nonzero;display:inline;overflow:visible;visibility:visible;opacity:1;isolation:auto;mix-blend-mode:normal;color-interpolation:sRGB;color-interpolation-filters:linearRGB;solid-color:#000000;solid-opacity:1;fill:#0b1b41;fill-opacity:1;fill-rule:evenodd;stroke:none;stroke-width:1px;stroke-linecap:butt;stroke-linejoin:miter;stroke-miterlimit:4;stroke-dasharray:none;stroke-dashoffset:0;stroke-opacity:1;color-rendering:auto;image-rendering:auto;shape-rendering:auto;text-rendering:auto;enable-background:accumulate"
         id="rect4380"
         width="1000"
         height="1600"
         x="0"
         y="2.2617187e-05"
         ry="0" />
    </clipPath>
    <clipPath
       clipPathUnits="userSpaceOnUse"
       id="clipPath4382">
      <rect
         style="color:#000000;clip-rule:nonzero;display:inline;overflow:visible;visibility:visible;opacity:1;isolation:auto;mix-blend-mode:normal;color-interpolation:sRGB;color-interpolation-filters:linearRGB;solid-color:#000000;solid-opacity:1;fill:#0b1b41;fill-opacity:1;fill-rule:evenodd;stroke:none;stroke-width:1px;stroke-linecap:butt;stroke-linejoin:miter;stroke-miterlimit:4;stroke-dasharray:none;stroke-dashoffset:0;stroke-opacity:1;color-rendering:auto;image-rendering:auto;shape-rendering:auto;text-rendering:auto;enable-background:accumulate"
         id="rect4384"
         width="1000"
         height="1600"
         x="0"
         y="0"
         ry="0" />
    </clipPath>
  </defs>
  <sodipodi:namedview
     id="base"
     pagecolor="#b9ffff"
     bordercolor="#d96666"
     borderopacity="1"
     inkscape:pageopacity="0"
     inkscape:pageshadow="2"
     inkscape:zoom="0.49497475"
     inkscape:cx="364.80416"
     inkscape:cy="797.27138"
     inkscape:document-units="px"
     inkscape:current-layer="layer1"
     showgrid="true"
     inkscape:window-width="1920"
     inkscape:window-height="1056"
     inkscape:window-x="0"
     inkscape:window-y="24"
     inkscape:window-maximized="1"
     units="px"
     inkscape:showpageshadow="false"
     gridtolerance="10"
     inkscape:snap-tangential="true"
     inkscape:snap-perpendicular="true">
    <inkscape:grid
       type="xygrid"
       id="grid4155"
       empspacing="10"
       spacingx="9.9999999"
       spacingy="10" />
  </sodipodi:namedview>
  <metadata
     id="metadata7">
    <rdf:RDF>
      <cc:Work
         rdf:about="">
        <dc:format>image/svg+xml</dc:format>
        <dc:type
           rdf:resource="http://purl.org/dc/dcmitype/StillImage" />
        <dc:title></dc:title>
      </cc:Work>
    </rdf:RDF>
  </metadata>
  <g
     inkscape:groupmode="layer"
     id="layer2"
     inkscape:label="background"
     style="display:inline"
     transform="translate(0,600)">
    <rect
       transform="translate(0,-52.36216)"
       style="color:#000000;clip-rule:nonzero;display:inline;overflow:visible;visibility:visible;opacity:1;isolation:auto;mix-blend-mode:normal;color-interpolation:sRGB;color-interpolation-filters:linearRGB;solid-color:#000000;solid-opacity:1;fill:#0b1b41;fill-opacity:1;fill-rule:evenodd;stroke:none;stroke-width:1px;stroke-linecap:butt;stroke-linejoin:miter;stroke-miterlimit:4;stroke-dasharray:none;stroke-dashoffset:0;stroke-opacity:1;color-rendering:auto;image-rendering:auto;shape-rendering:auto;text-rendering:auto;enable-background:accumulate"
       id="rect4266"
       width="1000"
       height="1600"
       x="0"
       y="-547.63782"
       ry="0" />
  </g>
  <g
     inkscape:label="glow"
     inkscape:groupmode="layer"
     id="layer1"
     transform="translate(0,547.63784)"
     style="display:inline">
    <path
       style="fill:#0d3076;fill-opacity:1;fill-rule:evenodd;stroke:none;stroke-width:1.99880254px;stroke-linecap:butt;stroke-linejoin:miter;stroke-opacity:1;opacity:0.515"
       d="M 500 2.4785156 A 799.521 799.521 0 0 0 -299.52148 802 A 799.521 799.521 0 0 0 500 1601.5215 A 799.521 799.521 0 0 0 1299.5215 802 A 799.521 799.521 0 0 0 500 2.4785156 z M 500 359.64453 A 440.35565 440.35565 0 0 1 940.35547 800 A 440.35565 440.35565 0 0 1 500 1240.3555 A 440.35565 440.35565 0 0 1 59.644531 800 A 440.35565 440.35565 0 0 1 500 359.64453 z "
       transform="translate(0,-547.63784)"
       id="path4268-7"
       clip-path="url(#clipPath4382)" />
    <path
       style="fill:#0d3076;fill-opacity:1;fill-rule:evenodd;stroke:none;stroke-width:1.75666857px;stroke-linecap:butt;stroke-linejoin:miter;stroke-opacity:1;opacity:0.751"
       d="M 500 97.332031 A 702.66742 702.66742 0 0 0 -202.66797 800 A 702.66742 702.66742 0 0 0 500 1502.668 A 702.66742 702.66742 0 0 0 1202.668 800 A 702.66742 702.66742 0 0 0 500 97.332031 z M 500 359.64453 A 440.35565 440.35565 0 0 1 940.35547 800 A 440.35565 440.35565 0 0 1 500 1240.3555 A 440.35565 440.35565 0 0 1 59.644531 800 A 440.35565 440.35565 0 0 1 500 359.64453 z "
       transform="translate(0,-547.63784)"
       id="path4268-6"
       clip-path="url(#clipPath4378)" />
    <circle
       style="fill:#0d3076;fill-rule:evenodd;stroke:none;stroke-width:1px;stroke-linecap:butt;stroke-linejoin:miter;stroke-opacity:1;fill-opacity:1"
       id="path4268"
       cx="500"
       cy="252.36217"
       r="400" />
  </g>
</svg>
