<?xml version="1.0" encoding="UTF-8" standalone="no"?>
<!-- Created with Inkscape (http://www.inkscape.org/) -->

<svg
   xmlns:dc="http://purl.org/dc/elements/1.1/"
   xmlns:cc="http://creativecommons.org/ns#"
   xmlns:rdf="http://www.w3.org/1999/02/22-rdf-syntax-ns#"
   xmlns:svg="http://www.w3.org/2000/svg"
   xmlns="http://www.w3.org/2000/svg"
   xmlns:sodipodi="http://sodipodi.sourceforge.net/DTD/sodipodi-0.dtd"
   xmlns:inkscape="http://www.inkscape.org/namespaces/inkscape"
   width="2000"
   height="2000"
   viewBox="0 0 2000 2000"
   id="svg2"
   version="1.1"
   inkscape:version="0.91 r13725"
   sodipodi:docname="clicky.svg">
  <defs
     id="defs4">
    <clipPath
       clipPathUnits="userSpaceOnUse"
       id="clipPath4378">
      <rect
         style="color:#000000;clip-rule:nonzero;display:inline;overflow:visible;visibility:visible;opacity:1;isolation:auto;mix-blend-mode:normal;color-interpolation:sRGB;color-interpolation-filters:linearRGB;solid-color:#000000;solid-opacity:1;fill:#0b1b41;fill-opacity:1;fill-rule:evenodd;stroke:none;stroke-width:1px;stroke-linecap:butt;stroke-linejoin:miter;stroke-miterlimit:4;stroke-dasharray:none;stroke-dashoffset:0;stroke-opacity:1;color-rendering:auto;image-rendering:auto;shape-rendering:auto;text-rendering:auto;enable-background:accumulate"
         id="rect4380"
         width="1000"
         height="1600"
         x="0"
         y="2.2617187e-05"
         ry="0" />
    </clipPath>
    <clipPath
       clipPathUnits="userSpaceOnUse"
       id="clipPath4382">
      <rect
         style="color:#000000;clip-rule:nonzero;display:inline;overflow:visible;visibility:visible;opacity:1;isolation:auto;mix-blend-mode:normal;color-interpolation:sRGB;color-interpolation-filters:linearRGB;solid-color:#000000;solid-opacity:1;fill:#0b1b41;fill-opacity:1;fill-rule:evenodd;stroke:none;stroke-width:1px;stroke-linecap:butt;stroke-linejoin:miter;stroke-miterlimit:4;stroke-dasharray:none;stroke-dashoffset:0;stroke-opacity:1;color-rendering:auto;image-rendering:auto;shape-rendering:auto;text-rendering:auto;enable-background:accumulate"
         id="rect4384"
         width="1000"
         height="1600"
         x="0"
         y="0"
         ry="0" />
    </clipPath>
  </defs>
  <sodipodi:namedview
     id="base"
     pagecolor="#b9ffff"
     bordercolor="#d96666"
     borderopacity="1"
     inkscape:pageopacity="0"
     inkscape:pageshadow="2"
     inkscape:zoom="0.49497475"
     inkscape:cx="866.8347"
     inkscape:cy="1187.4672"
     inkscape:document-units="px"
     inkscape:current-layer="g5176"
     showgrid="true"
     inkscape:window-width="1920"
     inkscape:window-height="1056"
     inkscape:window-x="1920"
     inkscape:window-y="24"
     inkscape:window-maximized="1"
     units="px"
     inkscape:showpageshadow="false"
     gridtolerance="10"
     inkscape:snap-tangential="true"
     inkscape:snap-perpendicular="true">
    <inkscape:grid
       type="xygrid"
       id="grid4155"
       empspacing="10"
       spacingx="9.9999999"
       spacingy="10" />
  </sodipodi:namedview>
  <metadata
     id="metadata7">
    <rdf:RDF>
      <cc:Work
         rdf:about="">
        <dc:format>image/svg+xml</dc:format>
        <dc:type
           rdf:resource="http://purl.org/dc/dcmitype/StillImage" />
        <dc:title />
      </cc:Work>
    </rdf:RDF>
  </metadata>
  <g
     inkscape:groupmode="layer"
     id="layer2"
     inkscape:label="background"
     style="display:inline"
     transform="translate(0,1000)" />
  <g
     inkscape:label="glow"
     inkscape:groupmode="layer"
     id="layer1"
     transform="translate(0,947.63784)"
     style="display:inline">
    <path
       style="fill:#94dfdf;fill-opacity:1;fill-rule:evenodd;stroke:none;stroke-width:1px;stroke-linecap:butt;stroke-linejoin:miter;stroke-opacity:1"
       d="m 957.14286,-770.495 a 700,700 0 0 0 -700,700.00002 700,700 0 0 0 700,700 700,700 0 0 0 700.00004,-700 A 700,700 0 0 0 957.14286,-770.495 Z m 0,300.00002 a 400,400 0 0 1 400.00004,400 400,400 0 0 1 -400.00004,400 400,400 0 0 1 -400,-400 400,400 0 0 1 400,-400 z"
       id="path4226"
       inkscape:connector-curvature="0" />
    <circle
       style="fill:#94dfdf;fill-opacity:1;fill-rule:evenodd;stroke:#000000;stroke-width:0.85738057px;stroke-linecap:butt;stroke-linejoin:miter;stroke-opacity:1"
       id="path4230"
       cx="957.14288"
       cy="-70.494995"
       r="257.21417" />
    <path
       style="display:inline;fill:#ff2711;fill-opacity:0.49275363;fill-rule:evenodd;stroke:none;stroke-width:1px;stroke-linecap:butt;stroke-linejoin:miter;stroke-opacity:1"
       d="M 957.14286,-621.92362 A 551.42858,551.42858 0 0 0 405.71429,-70.495024 551.42858,551.42858 0 0 0 957.14286,480.93354 551.42858,551.42858 0 0 0 1508.5715,-70.495024 551.42858,551.42858 0 0 0 957.14286,-621.92362 Z m 0,236.32655 A 315.10204,315.10204 0 0 1 1272.2449,-70.495024 315.10204,315.10204 0 0 1 957.14286,244.607 315.10204,315.10204 0 0 1 642.04082,-70.495024 315.10204,315.10204 0 0 1 957.14286,-385.59707 Z"
       id="path4226-9"
       inkscape:connector-curvature="0" />
  </g>
  <g
     inkscape:groupmode="layer"
     id="layer3"
     inkscape:label="mouse"
     transform="translate(0,400)">
    <g
       style="display:inline"
       id="g5176"
       transform="matrix(3.5590763,0,0,3.5590763,715.66609,84.32567)">
      <path
         style="color:#000000;font-style:normal;font-variant:normal;font-weight:normal;font-stretch:normal;font-size:medium;line-height:normal;font-family:Acquaintance;-inkscape-font-specification:Acquaintance;text-indent:0;text-align:start;text-decoration:none;text-decoration-line:none;letter-spacing:normal;word-spacing:normal;text-transform:none;direction:ltr;block-progression:tb;writing-mode:lr-tb;text-anchor:start;display:inline;overflow:visible;visibility:visible;fill:#ffffff;fill-opacity:1;fill-rule:nonzero;stroke:none;stroke-width:5;marker:none;enable-background:accumulate"
         id="path4097"
         d="m 75.300095,89.125 c -2.5188,0 -5.03,0 -7.55,0.025 -0.36,57.61001 -0.14488,115.23998 -0.22504,172.85 0.11024,30.56004 -0.21968,61.12498 0.2,91.675 10.37032,-0.01 20.74008,0.08 31.1,0 0.27744,-4.44488 0.348,-8.93234 0.35008,-13.425 l 0,-2.025 2.024965,0.025 c 4.40976,0.0289 8.81048,0.002 13.2,-0.05 0.10592,-4.5143 0.42376,-9.05769 -0.075,-13.575 l -0.27496,-2.525 2.52504,0.325 c 4.54232,0.57852 9.13448,0.197 13.67496,0.1 0.0866,-4.35032 0.1844,-8.70374 0.22504,-13.05 l 0.025,-2 2,0.025 c 3.43216,0.0267 6.87392,-0.0112 10.32496,-0.2 l 2.27504,-0.125 -0.17504,2.275 c -0.71368,9.51482 0.89384,19.03621 0.37504,28.55 4.48976,0.14849 8.97896,0.2084 13.47504,0.25 l 1.94992,0.025 0.025,1.95 c 0.0878,9.64042 0.0657,19.27631 0.22504,28.925 4.4364,0.087 8.87376,0.1386 13.32496,0.15 l 1.97504,0 0.025,1.975 c 0.0801,4.49655 0.11752,8.96595 0.1,13.475 10.43992,0.14 20.88512,0.11 31.32496,0.05 0.37624,-4.42817 0.5416,-8.91848 0.22504,-13.425 l -0.15,-2.2 2.2,0.05 c 4.42952,0.12337 8.8712,0.0862 13.25,-0.025 0.15,-10.38998 0.095,-20.78495 -0.025,-31.175 -4.46072,-0.12198 -8.91296,-0.1782 -13.37496,-0.225 l -1.95,-0.025 -0.025,-1.95 c -0.15104,-9.65978 -0.078,-19.28792 -0.12504,-28.95 -4.46824,-0.1639 -8.97896,-0.24806 -13.47496,-0.125 l -2.12504,0.05 0.075,-2.125 c 0.15224,-3.72234 0.2132,-7.43125 0.2,-11.125 l 0,-2 2,0 c 19.96048,-0.0353 39.9032,-0.0274 59.87504,-0.25 0.13008,-10.35002 0.16488,-20.69997 -0.025,-31.05 -4.49024,0 -8.97256,-0.0334 -13.45008,-0.1 l -1.94992,-0.025 -0.025,-1.95 c -0.065,-4.48808 -0.10104,-8.98374 -0.075,-13.475 -4.46624,-0.1132 -8.92296,-0.1394 -13.4,-0.15 l -1.97504,0 -0.025,-1.975 c -0.0491,-4.45188 -0.088,-8.89958 -0.17504,-13.35 -4.4552,-0.199 -8.93808,-0.3182 -13.45,-0.275 l -2.02504,0.025 0,-2.025 c -0.01,-4.50767 -0.031,-9.00584 -0.075,-13.5 -4.49248,0.0263 -8.99208,-0.009 -13.47496,-0.1 l -1.95008,-0.05 0,-1.95 c -0.0118,-4.41425 -0.0446,-8.8033 -0.17496,-13.2 -4.43424,-0.243 -8.87832,-0.2822 -13.35,-0.3 l -1.97504,0 -0.025,-1.975 c -0.0707,-4.49178 -0.1176,-8.96993 -0.1,-13.475 -4.49776,-0.0175 -8.98584,-0.0518 -13.47504,-0.125 l -1.9,-0.025 -0.075,-1.9 c -0.1608,-4.49031 -0.34096,-9.00011 -0.35,-13.5 -4.38576,-0.1042 -8.76824,-0.122 -13.17504,-0.125 l -1.94992,0 -0.0501,-1.95 c -0.1088,-4.4705 -0.1688,-8.96599 -0.12496,-13.45 -4.49192,-0.0524 -8.9856,-0.0844 -13.47504,-0.15 l -1.9,-0.025 -0.075,-1.9 c -0.17592,-4.48987 -0.24096,-8.98034 -0.25,-13.5 -4.46808,-0.1045 -8.92472,-0.1282 -13.4,-0.15 l -1.97504,0 -0.025,-1.975 c -0.0282,-4.4654 -0.0543,-8.94064 -0.15,-13.4 -4.48952,-0.0262 -9.0016,-0.0375 -13.5,-0.075 l -1.950005,-0.025 -0.02496,-1.95 c -0.04112,-4.47935 -0.066,-8.97978 -0.07504,-13.475 -4.49416,-0.1306 -9.02416,-0.1016 -13.55,-0.075 l -1.97496,0 -0.02504,-1.975 c -0.0284,-4.508216 -0.10856,-9.018512 -0.3,-13.5 -2.51496,-0.015 -5.03128,-0.025 -7.55,-0.025 z"
         inkscape:connector-curvature="0" />
      <path
         style="fill:#0d6a6a;fill-opacity:1"
         id="path3022"
         d="m 67.75,89.16 c 5.04,-0.05 10.08,-0.04 15.11,-0.01 0.22,5.15 0.34,10.3 0.34,15.45 5.17,-0.04 10.34,-0.04 15.5,0.11 0.01,5.14 0.02,10.28 0.08,15.41 -5.21,-0.03 -10.42,-0.02 -15.63,0.01 -0.04,72.59 0.15,145.17 0.09,217.75 5.15,0.06 10.29,0.07 15.44,-0.04 -0.05,-5.13 -0.03,-10.25 0.02,-15.38 5.15,-0.09 10.35,-0.53 15.45,0.39 0.84,5.08 0.36,10.24 0.24,15.36 -5.05,0.06 -10.11,0.11 -15.17,0.05 0.04,5.14 -0.08,10.29 -0.4,15.42 -10.36,0.08 -20.73,-0.02 -31.1,-0.01 C 67.3,323.12 67.64,292.56 67.53,262 67.61,204.39 67.39,146.77 67.75,89.16 Z"
         inkscape:connector-curvature="0" />
      <path
         style="fill:#0d6a6a;fill-opacity:1"
         id="path3024"
         d="m 98.78,120.12 c 5.15,0.05 10.31,0.07 15.46,0.1 0.11,5.12 0.15,10.24 0.18,15.36 5.13,0.02 10.26,0.05 15.39,0.17 0.01,5.13 0.01,10.27 0.27,15.41 5.14,0.09 10.28,0.11 15.42,0.17 -0.05,5.12 -0.01,10.25 0.14,15.37 5.06,-0.01 10.12,0.04 15.17,0.16 0.01,5.13 0.22,10.26 0.4,15.39 5.12,0.1 10.25,0.12 15.38,0.14 -0.02,5.13 0.01,10.26 0.11,15.4 5.12,0 10.25,0.07 15.36,0.35 0.15,5.06 0.2,10.12 0.2,15.19 5.13,0.13 10.26,0.16 15.39,0.13 0.05,5.15 0.09,10.3 0.09,15.45 -5.2,0.26 -10.4,0.22 -15.6,0.08 0,-5.14 0.02,-10.29 0.02,-15.44 -5.22,-0.07 -10.44,-0.06 -15.65,-0.03 0.07,-5.21 0.08,-10.41 -0.01,-15.61 -5.15,0.01 -10.31,0.02 -15.46,0.03 0,-5.17 0.02,-10.33 0.03,-15.49 -5.22,-0.12 -10.43,-0.11 -15.64,-0.03 0.01,-5.21 0.03,-10.42 -0.03,-15.63 -5.15,0 -10.31,0.01 -15.46,0.02 -0.07,-5.19 -0.05,-10.38 -0.11,-15.57 -5.18,0 -10.36,0.01 -15.53,-0.11 0.03,-5.14 0.04,-10.28 -0.01,-15.42 -5.13,-0.06 -10.26,-0.05 -15.39,-0.02 -0.16,-5.19 -0.14,-10.38 -0.12,-15.57 z"
         inkscape:connector-curvature="0" />
      <path
         style="fill:#0d6a6a;fill-opacity:1"
         id="path3028"
         d="m 207.74,228.91 c 5.16,-0.14 10.31,0.09 15.46,0.32 0.1,5.1 0.14,10.2 0.2,15.3 5.13,0 10.25,0.04 15.38,0.17 -0.03,5.14 0,10.29 0.09,15.43 5.13,0.09 10.27,0.12 15.41,0.12 0.19,10.35 0.16,20.69 0.03,31.04 -20.63,0.23 -41.25,0.23 -61.87,0.27 0.03,5.07 0.05,10.15 -0.23,15.22 -5.2,0.26 -10.41,0.2 -15.61,0.16 -0.15,-10.38 -0.14,-20.76 0,-31.13 20.73,-0.13 41.47,0.06 62.2,-0.03 0.07,-5.19 0.07,-10.39 -0.01,-15.58 -5.18,-0.03 -10.37,-0.02 -15.55,-0.1 0.01,-5.15 0.03,-10.3 -0.01,-15.45 -5.13,-0.05 -10.27,-0.04 -15.4,0.01 -0.19,-5.25 -0.19,-10.5 -0.09,-15.75 z"
         inkscape:connector-curvature="0" />
      <path
         style="fill:#0d6a6a;fill-opacity:1"
         id="path3032"
         d="m 129.88,291.23 c 5.15,-0.03 10.3,-0.02 15.45,0.01 0.19,5.32 0.43,10.68 -0.3,15.97 -4.84,0.38 -9.69,0.33 -14.53,0.28 -0.02,5.01 -0.14,10.02 -0.24,15.04 -5.15,0.11 -10.37,0.64 -15.47,-0.33 -1.08,-5.05 -0.56,-10.25 -0.47,-15.36 5.16,-0.03 10.32,-0.03 15.48,-0.03 -0.02,-5.19 -0.02,-10.39 0.08,-15.58 z"
         inkscape:connector-curvature="0" />
      <path
         style="fill:#0d6a6a;fill-opacity:1"
         id="path3034"
         d="m 145.03,307.21 c 5.31,-0.58 10.65,-0.41 15.97,-0.31 0.11,10.34 0.01,20.69 0.07,31.03 5.19,-0.01 10.37,-0.01 15.56,0.1 0.03,10.3 -0.09,20.6 0.07,30.91 10.39,0.16 20.8,-0.33 31.18,0.28 0.6,5.18 0.28,10.4 -0.16,15.58 -10.44,0.06 -20.87,0.1 -31.31,-0.04 0.02,-5.15 -0.02,-10.29 -0.13,-15.44 -5.1,0.01 -10.21,-0.06 -15.31,-0.16 -0.17,-10.3 -0.13,-20.6 -0.24,-30.89 -5.14,-0.04 -10.28,-0.11 -15.42,-0.28 0.56,-10.27 -1.48,-20.54 -0.28,-30.78 z"
         inkscape:connector-curvature="0" />
      <path
         style="fill:#0d6a6a;fill-opacity:1"
         id="path3036"
         d="m 192.21,306.78 c 5.17,-0.24 10.35,-0.1 15.53,0.09 0.05,10.3 -0.07,20.6 0.13,30.91 5.12,0.05 10.23,0.11 15.35,0.25 0.12,10.39 0.18,20.78 0.03,31.17 -5.12,0.13 -10.25,0.26 -15.37,0.02 -0.58,-10.35 -0.1,-20.73 -0.2,-31.09 -5.21,-0.11 -10.42,-0.09 -15.62,-0.13 -0.01,-10.4 -0.12,-20.82 0.15,-31.22 z"
         inkscape:connector-curvature="0" />
    </g>
  </g>
</svg>
