<?xml version="1.0" encoding="UTF-8" standalone="no"?>
<!-- Created with Inkscape (http://www.inkscape.org/) -->

<svg
   xmlns:dc="http://purl.org/dc/elements/1.1/"
   xmlns:cc="http://creativecommons.org/ns#"
   xmlns:rdf="http://www.w3.org/1999/02/22-rdf-syntax-ns#"
   xmlns:svg="http://www.w3.org/2000/svg"
   xmlns="http://www.w3.org/2000/svg"
   xmlns:sodipodi="http://sodipodi.sourceforge.net/DTD/sodipodi-0.dtd"
   xmlns:inkscape="http://www.inkscape.org/namespaces/inkscape"
   id="svg4302"
   version="1.1"
   inkscape:version="0.91 r13725"
   width="1000"
   height="1000"
   viewBox="0 0 1000 1000"
   sodipodi:docname="favicon.svg"
   inkscape:export-filename="/home/justin/projects/demo-site/src/resources/favicon.ico"
   inkscape:export-xdpi="2.8800001"
   inkscape:export-ydpi="2.8800001">
  <metadata
     id="metadata4308">
    <rdf:RDF>
      <cc:Work
         rdf:about="">
        <dc:format>image/svg+xml</dc:format>
        <dc:type
           rdf:resource="http://purl.org/dc/dcmitype/StillImage" />
        <dc:title />
      </cc:Work>
    </rdf:RDF>
  </metadata>
  <defs
     id="defs4306">
    <clipPath
       clipPathUnits="userSpaceOnUse"
       id="clipPath4309">
      <circle
         style="display:inline;fill:#bbc5d8;fill-opacity:1;fill-rule:evenodd;stroke:none;stroke-width:1px;stroke-linecap:butt;stroke-linejoin:miter;stroke-opacity:1"
         id="circle4311"
         cx="499.56583"
         cy="499.14648"
         r="500.85336" />
    </clipPath>
    <clipPath
       clipPathUnits="userSpaceOnUse"
       id="clipPath4319">
      <circle
         style="display:inline;fill:#bbc5d8;fill-opacity:1;fill-rule:evenodd;stroke:none;stroke-width:1px;stroke-linecap:butt;stroke-linejoin:miter;stroke-opacity:1"
         id="circle4321"
         cx="501.56583"
         cy="500.14648"
         r="500.85336" />
    </clipPath>
    <clipPath
       clipPathUnits="userSpaceOnUse"
       id="clipPath4323">
      <circle
         style="display:inline;fill:#bbc5d8;fill-opacity:1;fill-rule:evenodd;stroke:none;stroke-width:1px;stroke-linecap:butt;stroke-linejoin:miter;stroke-opacity:1"
         id="circle4325"
         cx="501.56583"
         cy="500.14648"
         r="500.85336" />
    </clipPath>
    <clipPath
       clipPathUnits="userSpaceOnUse"
       id="clipPath4327">
      <circle
         style="display:inline;fill:#bbc5d8;fill-opacity:1;fill-rule:evenodd;stroke:none;stroke-width:1px;stroke-linecap:butt;stroke-linejoin:miter;stroke-opacity:1"
         id="circle4329"
         cx="501.56583"
         cy="500.14648"
         r="500.85336" />
    </clipPath>
    <clipPath
       clipPathUnits="userSpaceOnUse"
       id="clipPath4331">
      <circle
         style="display:inline;fill:#bbc5d8;fill-opacity:1;fill-rule:evenodd;stroke:none;stroke-width:1px;stroke-linecap:butt;stroke-linejoin:miter;stroke-opacity:1"
         id="circle4333"
         cx="501.56583"
         cy="500.14648"
         r="500.85336" />
    </clipPath>
    <clipPath
       clipPathUnits="userSpaceOnUse"
       id="clipPath4335">
      <circle
         style="display:inline;fill:#bbc5d8;fill-opacity:1;fill-rule:evenodd;stroke:none;stroke-width:1px;stroke-linecap:butt;stroke-linejoin:miter;stroke-opacity:1"
         id="circle4337"
         cx="501.56583"
         cy="500.14648"
         r="500.85336" />
    </clipPath>
    <clipPath
       clipPathUnits="userSpaceOnUse"
       id="clipPath4339">
      <circle
         style="display:inline;fill:#bbc5d8;fill-opacity:1;fill-rule:evenodd;stroke:none;stroke-width:1px;stroke-linecap:butt;stroke-linejoin:miter;stroke-opacity:1"
         id="circle4341"
         cx="501.56583"
         cy="500.14648"
         r="500.85336" />
    </clipPath>
    <clipPath
       clipPathUnits="userSpaceOnUse"
       id="clipPath4343">
      <circle
         style="display:inline;fill:#bbc5d8;fill-opacity:1;fill-rule:evenodd;stroke:none;stroke-width:1px;stroke-linecap:butt;stroke-linejoin:miter;stroke-opacity:1"
         id="circle4345"
         cx="501.56583"
         cy="500.14648"
         r="500.85336" />
    </clipPath>
    <clipPath
       clipPathUnits="userSpaceOnUse"
       id="clipPath4322">
      <circle
         style="display:inline;fill:#bbc5d8;fill-opacity:1;fill-rule:evenodd;stroke:none;stroke-width:1px;stroke-linecap:butt;stroke-linejoin:miter;stroke-opacity:1"
         id="circle4324"
         cx="501.56583"
         cy="500.14648"
         r="500.85336" />
    </clipPath>
  </defs>
  <sodipodi:namedview
     pagecolor="#8effff"
     bordercolor="#666666"
     borderopacity="1"
     objecttolerance="10"
     gridtolerance="10"
     guidetolerance="10"
     inkscape:pageopacity="0"
     inkscape:pageshadow="2"
     inkscape:window-width="1920"
     inkscape:window-height="1056"
     id="namedview4304"
     showgrid="false"
     inkscape:zoom="0.5"
     inkscape:cx="228.23959"
     inkscape:cy="527.05066"
     inkscape:window-x="0"
     inkscape:window-y="24"
     inkscape:window-maximized="1"
     inkscape:current-layer="layer2"
     showguides="true"
     inkscape:guide-bbox="true">
    <sodipodi:guide
       position="582.67445,4741.5134"
       orientation="0,1"
       id="guide4408" />
    <sodipodi:guide
       position="499.56583,1013.2946"
       orientation="1,0"
       id="guide4466" />
    <sodipodi:guide
       position="437.76387,500.85337"
       orientation="0,1"
       id="guide4468" />
  </sodipodi:namedview>
  <g
     inkscape:groupmode="layer"
     id="layer1"
     inkscape:label="background"
     style="display:inline"
     transform="translate(0,-3733)">
    <circle
       style="fill:#bbc5d8;fill-opacity:1;fill-rule:evenodd;stroke:none;stroke-width:1px;stroke-linecap:butt;stroke-linejoin:miter;stroke-opacity:1"
       id="path4470"
       cx="501.56583"
       cy="4233.1465"
       r="500.85336" />
  </g>
  <g
     inkscape:groupmode="layer"
     id="layer2"
     inkscape:label="subject">
    <g
       id="g4294"
       clip-path="url(#clipPath4322)">
      <path
         sodipodi:nodetypes="ccccccccc"
         inkscape:connector-curvature="0"
         id="path4242"
         d="m 851.48277,1622.1784 -660.26804,6.9516 3.67309,210.1602 c 0,0 -3.2992,81.4943 -6.57426,195.4242 84.35282,29.8387 172.80257,45.9713 261.27108,56.7183 -20.93798,-129.1011 152.74911,-130.4675 121.85827,3.4128 92.21155,-6.1655 184.76971,-17.8299 273.64339,-44.5888 16.17815,-194.3175 4.08075,-256.6397 4.08072,-256.6397 z"
         clip-path="none"
         style="fill:#dbdbbb;fill-opacity:1;fill-rule:evenodd;stroke:none;stroke-width:1px;stroke-linecap:butt;stroke-linejoin:miter;stroke-opacity:1" />
      <path
         sodipodi:nodetypes="cccccc"
         inkscape:connector-curvature="0"
         id="path4963"
         d="m 406.21638,648.44613 277.53657,-23.23062 -22.21157,-190.946 39.9922,-281.3251 -320.57309,-6.93171 z"
         style="display:inline;opacity:1;fill:#d29669;fill-opacity:1;fill-rule:evenodd;stroke:none;stroke-width:1px;stroke-linecap:butt;stroke-linejoin:miter;stroke-opacity:1" />
      <path
         sodipodi:nodetypes="csscsssssssc"
         inkscape:connector-curvature="0"
         id="path4282"
         d="m 390.45394,612.08276 c 0,0 -264.10767,78.76895 -287.27499,120.47015 -23.16734,41.70121 55.54201,257.46337 55.60163,301.17539 0.44232,324.2793 -5.5602,648.4536 -5.5602,648.4536 0,0 55.68985,167.5 155.9162,195.3007 100.22631,27.8009 377.82269,30.3492 410.25696,11.8153 32.43429,-18.5337 135.5265,-200.0768 137.14517,-234.2447 23.39669,-493.8681 18.1125,-609.7412 20.42925,-658.39266 2.31677,-48.65144 93.845,-267.43675 48.6514,-308.12556 -56.80787,-51.14537 -208.50604,-83.40238 -227.0399,-88.03587 -9.26692,-2.31675 -88.61504,44.59714 -163.32972,48.07223 -74.71466,3.47508 -144.7958,-36.48858 -144.7958,-36.48858 z"
         style="display:inline;fill:#0d3076;fill-opacity:1;fill-rule:evenodd;stroke:none;stroke-width:1px;stroke-linecap:butt;stroke-linejoin:miter;stroke-opacity:1" />
      <path
         sodipodi:nodetypes="cc"
         inkscape:connector-curvature="0"
         id="path4284"
         d="m 530.25637,1899.5537 c 5.26275,-361.4843 5.26275,-702.7852 0,-1097.49389"
         style="display:inline;fill:none;fill-rule:evenodd;stroke:#0b1b41;stroke-width:19.98302269;stroke-linecap:butt;stroke-linejoin:miter;stroke-miterlimit:4;stroke-dasharray:none;stroke-opacity:1" />
      <path
         sodipodi:nodetypes="ccsc"
         inkscape:connector-curvature="0"
         id="path4286"
         d="m 395.0874,616.71623 c 0,0 125.72392,56.43775 296.00384,-15.96016 0,0 -108.95522,185.08171 -150.04965,205.93233 C 499.94716,827.53897 378.87028,663.05087 395.0874,616.71623 Z"
         style="display:inline;fill:#c40b29;fill-opacity:1;fill-rule:evenodd;stroke:none;stroke-width:1px;stroke-linecap:butt;stroke-linejoin:miter;stroke-opacity:1" />
      <path
         sodipodi:nodetypes="csscscssc"
         inkscape:connector-curvature="0"
         id="path4280"
         d="m -102.96416,1850.3819 c 0,0 -2.78486,65.445 1.39248,86.3317 4.177361,20.887 21.802628,146.8245 38.512057,162.1414 16.709414,15.317 92.967141,56.2307 119.423734,42.3065 26.456558,-13.9248 30.045118,-105.5836 20.29797,-139.0026 -9.747149,-33.4185 21.952167,-0.4767 21.952167,-0.4767 0,0 52.259012,35.1948 48.081652,-2.4016 -4.17738,-37.5959 -95.097939,-111.3024 -100.667738,-154.4685 -5.569811,-43.1662 -148.992322,5.5698 -148.992322,5.5698 z"
         style="display:inline;fill:#dbad8b;fill-opacity:1;fill-rule:evenodd;stroke:none;stroke-width:1px;stroke-linecap:butt;stroke-linejoin:miter;stroke-opacity:1" />
      <path
         sodipodi:nodetypes="czsszzssc"
         inkscape:connector-curvature="0"
         id="path4305"
         d="m 107.04588,726.46333 c -85.882781,80.34703 -223.86027,352.93887 -230.38982,676.65927 -6.52954,323.7203 0.20516,337.459 5.50888,443.1784 2.61889,52.2021 187.960491,43.0962 187.631331,-8.3427 -0.516404,-80.6898 1.826863,-75.7437 -12.455495,-252.2402 -14.282382,-176.4964 4.136959,-343.4838 57.421864,-445.4201 53.2849,-101.9362 81.08565,-104.253 92.66933,-148.27093 11.58363,-44.01793 4.63347,-245.57376 -32.4343,-257.15742 -37.06772,-11.58366 35.69367,-74.32116 -67.95179,-8.40632 z"
         style="display:inline;fill:#0d3076;fill-opacity:1;fill-rule:evenodd;stroke:none;stroke-width:1px;stroke-linecap:butt;stroke-linejoin:miter;stroke-opacity:1" />
      <path
         sodipodi:nodetypes="cssssscccscssc"
         inkscape:connector-curvature="0"
         id="path4239"
         d="m 676.19428,553.68209 c 28.96228,-0.14653 70.44227,1.62175 79.28742,23.95662 11.7491,29.66767 -32.07986,254.44548 -37.81348,242.15914 -5.73363,-12.28633 -51.54722,-95.52999 -55.65737,-98.50722 -2.97978,-2.15846 -42.94274,31.75984 -42.94274,31.75984 -37.55356,36.2466 -58.59722,43.99577 -76.21098,54.671 -10.89692,6.60433 139.68509,-183.59777 138.04691,-203.2559 m -276.03295,16.38176 c 0,8.19091 117.83008,187.69128 117.83008,187.69128 -4.74918,-0.0451 -71.73611,-48.13726 -77.29123,-56.29134 -6.30046,-9.24807 -63.18403,-48.61118 -63.18403,-48.61118 0,0 -59.48833,106.42001 -64.15679,105.16426 -7.37838,-1.9847 -3.48879,-198.72511 10.14782,-212.14044 13.59245,-13.37186 54.53872,-15.94795 75.83501,-15.12882"
         style="display:inline;fill:#0b1b41;fill-opacity:1;fill-rule:evenodd;stroke:none;stroke-width:1px;stroke-linecap:butt;stroke-linejoin:miter;stroke-opacity:1" />
      <circle
         r="8.8813438"
         cy="1825.3608"
         cx="-97.979691"
         id="path4954"
         style="display:inline;fill:#0b1b41;fill-opacity:1;fill-rule:evenodd;stroke:none;stroke-width:1px;stroke-linecap:butt;stroke-linejoin:miter;stroke-opacity:1" />
      <circle
         r="8.8813438"
         cy="1794.2761"
         cx="-97.979691"
         id="path4954-7"
         style="display:inline;fill:#0b1b41;fill-opacity:1;fill-rule:evenodd;stroke:none;stroke-width:1px;stroke-linecap:butt;stroke-linejoin:miter;stroke-opacity:1" />
      <path
         sodipodi:nodetypes="cccsssc"
         inkscape:connector-curvature="0"
         id="path4225"
         d="m 690.74843,1633.8961 11.5837,511.9981 206.18926,6.9501 c 0,0 349.82671,-118.1535 345.19331,-266.4244 -4.6335,-148.2709 -6.9502,-407.7451 -44.0179,-414.6952 -18.5339,-3.4752 -74.1355,-69.5021 -199.2391,-28.0905 -125.10363,41.4118 -319.70927,190.2619 -319.70927,190.2619 z"
         style="display:inline;fill:#1a2015;fill-opacity:1;fill-rule:evenodd;stroke:none;stroke-width:1.77380681px;stroke-linecap:butt;stroke-linejoin:miter;stroke-opacity:1" />
      <path
         inkscape:connector-curvature="0"
         id="path4227"
         d="m 901.57119,1659.3801 c 0,0 18.53385,484.1973 -2.31672,491.1475 -20.85062,6.9501 -196.92234,-2.3167 -196.92234,-2.3167 0,0 -27.80084,-509.6814 -13.90044,-514.3148 13.90044,-4.6337 210.82278,18.5338 213.1395,25.484 z"
         style="display:inline;fill:#323735;fill-opacity:1;fill-rule:evenodd;stroke:none;stroke-width:1px;stroke-linecap:butt;stroke-linejoin:miter;stroke-opacity:1" />
      <path
         sodipodi:nodetypes="csssssc"
         inkscape:connector-curvature="0"
         id="path4229"
         d="m 725.92838,1632.6469 c 0,0 -48.62596,-983.66562 74.58739,-996.23841 227.03993,-23.16736 423.15803,849.59941 411.57433,854.23291 -11.5837,4.6334 -81.2389,-44.9178 -106.7229,-49.5512 -25.4841,-4.6336 -122.60005,-873.20766 -245.77477,-761.82219 -87.73197,79.33503 -33.72669,940.79569 -24.45974,966.27989 9.26692,25.4839 -109.20431,-12.901 -109.20431,-12.901 z"
         style="display:inline;fill:#1a2015;fill-opacity:1;fill-rule:evenodd;stroke:none;stroke-width:1px;stroke-linecap:butt;stroke-linejoin:miter;stroke-opacity:1" />
      <path
         sodipodi:nodetypes="cssscsssscc"
         inkscape:connector-curvature="0"
         id="path4280-3"
         d="m 822.42447,1515.3394 c 14.02722,-3.0746 23.53621,-1.8971 42.35949,-2.6834 18.82327,-0.7862 38.32575,-1.3773 55.06974,-3.6712 16.74399,-2.2939 30.7295,-6.2908 38.51882,-13.8883 31.15737,-30.3902 77.25878,71.7157 77.25878,71.7157 0,0 -33.254,76.3016 -51.53163,87.2393 -25.65843,15.3551 -15.58766,22.3089 -46.04588,66.339 -12.89559,18.6419 -17.39209,55.5636 -77.50704,55.6112 -60.11492,0.046 -55.37148,-65.3252 -54.46332,-118.4502 0.59501,-34.8057 37.24843,-81.5084 37.24843,-81.5084 0,0 -2.45784,2.4215 -17.5841,-3.3259"
         style="display:inline;fill:#dbad8b;fill-opacity:1;fill-rule:evenodd;stroke:none;stroke-width:1px;stroke-linecap:butt;stroke-linejoin:miter;stroke-opacity:1" />
      <path
         sodipodi:nodetypes="cssszzc"
         inkscape:connector-curvature="0"
         id="path4322"
         d="m 887.53938,661.89182 c 25.51115,2.42807 256.10422,163.09576 375.55702,482.34648 28.2524,75.5078 -155.0638,416.235 -208.2551,440.1834 -53.1913,23.9484 -89.64272,-46.4414 -124.49999,-91.3723 -24.80057,-31.9678 141.70599,-266.5591 159.92359,-301.4001 18.2176,-34.8409 -126.22756,-199.51489 -232.03185,-216.25351 -105.80428,-16.73862 26.5604,-295.52186 29.30633,-313.50397 z"
         style="display:inline;fill:#0d3076;fill-opacity:1;fill-rule:evenodd;stroke:none;stroke-width:1px;stroke-linecap:butt;stroke-linejoin:miter;stroke-opacity:1" />
      <path
         sodipodi:nodetypes="cscscccccc"
         inkscape:connector-curvature="0"
         id="path4965"
         d="m 291.82513,94.026988 c 0,0 12.60322,-68.057378 90.74332,-78.139908 78.13983,-10.08258 240.72139,2.52063 240.72139,2.52063 0,0 93.2636,49.152521 94.52387,122.25115 1.26053,73.09861 -13.86349,182.74653 -13.86349,182.74653 0,0 18.9048,2.52064 20.16509,37.80959 -4.00982,37.19871 -21.93771,52.69235 -47.89205,76.87964 C 645.19025,452.95219 632.63751,516.56198 615.99684,523.54 550.04412,573.94169 408.45855,626.24248 358.62227,559.08543 260.87363,399.18212 279.74192,261.17933 291.82513,94.026988 Z"
         style="display:inline;opacity:1;fill:#e6b692;fill-opacity:1;fill-rule:evenodd;stroke:none;stroke-width:1px;stroke-linecap:butt;stroke-linejoin:miter;stroke-opacity:1" />
      <circle
         r="27.708965"
         cy="310.21036"
         cx="469.60486"
         id="path4968"
         style="display:inline;fill:#50626e;fill-opacity:1;fill-rule:evenodd;stroke:none;stroke-width:1px;stroke-linecap:butt;stroke-linejoin:miter;stroke-opacity:1" />
      <path
         inkscape:connector-curvature="0"
         id="rect4985"
         d="m 441.9099,218.51684 60.49532,0 c 8.37865,0 15.12399,6.74524 15.12399,15.12385 0,8.37862 -6.74534,15.12387 -15.12399,15.12387 l -60.49532,0 c -8.37866,0 -15.12372,-6.74525 -15.12372,-15.12387 0,-8.37861 6.74506,-15.12385 15.12372,-15.12385 z"
         style="color:#000000;clip-rule:nonzero;display:inline;overflow:visible;visibility:visible;opacity:1;isolation:auto;mix-blend-mode:normal;color-interpolation:sRGB;color-interpolation-filters:linearRGB;solid-color:#000000;solid-opacity:1;fill:#854d34;fill-opacity:1;fill-rule:evenodd;stroke:none;stroke-width:1px;stroke-linecap:butt;stroke-linejoin:miter;stroke-miterlimit:4;stroke-dasharray:none;stroke-dashoffset:0;stroke-opacity:1;color-rendering:auto;image-rendering:auto;shape-rendering:auto;text-rendering:auto;enable-background:accumulate" />
      <path
         inkscape:connector-curvature="0"
         id="rect4985-3"
         d="m 289.96118,226.93879 59.89904,-8.47427 c 8.29609,-1.17369 15.91956,4.56024 17.09325,12.85623 1.17371,8.29603 -4.56005,15.9196 -12.85612,17.09329 l -59.89904,8.47427 c -8.29606,1.17369 -15.91952,-4.56018 -17.09319,-12.85618 -1.17369,-8.29602 4.56002,-15.91965 12.85606,-17.09334 z"
         style="color:#000000;clip-rule:nonzero;display:inline;overflow:visible;visibility:visible;opacity:1;isolation:auto;mix-blend-mode:normal;color-interpolation:sRGB;color-interpolation-filters:linearRGB;solid-color:#000000;solid-opacity:1;fill:#854d34;fill-opacity:1;fill-rule:evenodd;stroke:none;stroke-width:1px;stroke-linecap:butt;stroke-linejoin:miter;stroke-miterlimit:4;stroke-dasharray:none;stroke-dashoffset:0;stroke-opacity:1;color-rendering:auto;image-rendering:auto;shape-rendering:auto;text-rendering:auto;enable-background:accumulate" />
      <path
         inkscape:connector-curvature="0"
         id="path5010"
         d="m 407.83347,506.01962 41.59074,0 c 0,0 -6.30162,11.5346 -41.59074,13.96294 -35.28884,2.42832 -44.11126,-12.74878 -44.11126,-12.74878 z"
         style="display:inline;fill:#d29669;fill-opacity:1;fill-rule:evenodd;stroke:none;stroke-width:1px;stroke-linecap:butt;stroke-linejoin:miter;stroke-opacity:1" />
      <path
         sodipodi:nodetypes="csscccssssssssscszsscsc"
         inkscape:connector-curvature="0"
         id="path5013"
         d="m 556.79313,135.108 c 0,0 -110.10031,46.27132 -156.27995,40.33028 -24.27086,-3.12245 -73.09873,-5.04127 -115.94944,-22.68572 -38.897,-16.01635 -51.67317,-16.38422 -51.67317,-16.38422 l 44.11131,-10.08258 -39.07022,-21.42544 c 0,0 42.851,-3.78094 46.63208,-11.342867 3.78079,-7.56197 3.78079,-50.412893 44.11124,-68.057383 40.3302,-17.6445 114.68923,-27.72704 165.10211,-26.46674 50.41255,1.26034 152.4988,17.6445 162.58125,23.9461 10.0827,6.30161 22.68589,7.56191 23.94618,-1.26032 1.26026,-8.82224 12.60324,15.12388 7.56187,22.68577 -5.04134,7.56193 7.56188,8.82228 12.60323,3.78098 5.04136,-5.0413 10.08266,17.644477 1.26026,23.946134 -8.82212,6.301565 23.94614,30.247696 21.42562,47.892166 -2.52081,17.64444 -16.38425,200.39102 -16.38425,200.39102 0,0 -47.89207,-22.68576 -65.53667,12.60319 -17.64455,35.28903 -15.75414,-17.64447 -22.6859,-54.19378 -6.93168,-36.54927 -56.71446,-64.27635 -65.53657,-66.79701 -8.82247,-2.52059 22.6856,-18.9048 23.94611,-27.72704 1.26031,-8.82226 -39.0699,-3.78093 -39.0699,-3.78093 0,0 30.24754,-27.72705 31.50781,-34.02872 1.26053,-6.30157 -12.603,-11.34289 -12.603,-11.34289 z"
         style="display:inline;fill:#864e34;fill-opacity:1;fill-rule:evenodd;stroke:none;stroke-width:1px;stroke-linecap:butt;stroke-linejoin:miter;stroke-opacity:1" />
      <circle
         r="27.708965"
         cy="310.21036"
         cx="331.94397"
         id="path4968-6"
         style="display:inline;fill:#50626e;fill-opacity:1;fill-rule:evenodd;stroke:none;stroke-width:1px;stroke-linecap:butt;stroke-linejoin:miter;stroke-opacity:1" />
      <path
         sodipodi:nodetypes="czc"
         inkscape:connector-curvature="0"
         id="path4944"
         d="m 345.5324,475.95184 c 0,0 23.86862,10.54658 44.40673,9.9915 20.53811,-0.55508 55.50839,-8.88134 60.50415,-11.65675"
         style="display:inline;fill:none;fill-rule:evenodd;stroke:#d29669;stroke-width:8.88134384;stroke-linecap:round;stroke-linejoin:miter;stroke-miterlimit:4;stroke-dasharray:none;stroke-opacity:1" />
      <path
         inkscape:connector-curvature="0"
         id="path4946"
         d="m 348.26839,437.29512 c 0,0 16.21165,-15.3214 25.05436,-14.70858 8.84271,0.61289 41.26601,17.77286 53.05631,14.09573 11.79028,-3.67715 -52.3194,25.73998 -78.11067,0.61285 z"
         style="display:inline;fill:#d29669;fill-opacity:1;fill-rule:evenodd;stroke:none;stroke-width:1px;stroke-linecap:butt;stroke-linejoin:miter;stroke-opacity:1" />
      <path
         inkscape:connector-curvature="0"
         id="path4950"
         d="m 419.07304,411.41391 c 0,0 -22.63215,-17.02185 -23.52759,-40.47026 -0.89542,-23.44837 21.91998,-64.84439 30.79126,-76.47452 8.87134,-11.63012 -7.26367,116.94478 -7.26367,116.94478 z"
         style="display:inline;fill:#d29669;fill-opacity:1;fill-rule:evenodd;stroke:none;stroke-width:1px;stroke-linecap:butt;stroke-linejoin:miter;stroke-opacity:1" />
    </g>
  </g>
  <g
     inkscape:groupmode="layer"
     id="layer7"
     inkscape:label="clip" />
</svg>
