<?xml version="1.0" encoding="UTF-8" standalone="no"?>
<!-- Created with Inkscape (http://www.inkscape.org/) -->

<svg
   xmlns:dc="http://purl.org/dc/elements/1.1/"
   xmlns:cc="http://creativecommons.org/ns#"
   xmlns:rdf="http://www.w3.org/1999/02/22-rdf-syntax-ns#"
   xmlns:svg="http://www.w3.org/2000/svg"
   xmlns="http://www.w3.org/2000/svg"
   xmlns:sodipodi="http://sodipodi.sourceforge.net/DTD/sodipodi-0.dtd"
   xmlns:inkscape="http://www.inkscape.org/namespaces/inkscape"
   id="svg4302"
   version="1.1"
   inkscape:version="0.91 r13725"
   width="1000"
   height="1000"
   viewBox="0 0 1000 1000"
   sodipodi:docname="favicon.svg"
   inkscape:export-filename="/home/justin/projects/2016-oct-demo/src/resources/favicon.ico"
   inkscape:export-xdpi="2.8800001"
   inkscape:export-ydpi="2.8800001">
  <metadata
     id="metadata4308">
    <rdf:RDF>
      <cc:Work
         rdf:about="">
        <dc:format>image/svg+xml</dc:format>
        <dc:type
           rdf:resource="http://purl.org/dc/dcmitype/StillImage" />
        <dc:title></dc:title>
      </cc:Work>
    </rdf:RDF>
  </metadata>
  <defs
     id="defs4306">
    <clipPath
       clipPathUnits="userSpaceOnUse"
       id="clipPath4309">
      <circle
         style="display:inline;fill:#bbc5d8;fill-opacity:1;fill-rule:evenodd;stroke:none;stroke-width:1px;stroke-linecap:butt;stroke-linejoin:miter;stroke-opacity:1"
         id="circle4311"
         cx="499.56583"
         cy="499.14648"
         r="500.85336" />
    </clipPath>
    <clipPath
       clipPathUnits="userSpaceOnUse"
       id="clipPath4319">
      <circle
         style="display:inline;fill:#bbc5d8;fill-opacity:1;fill-rule:evenodd;stroke:none;stroke-width:1px;stroke-linecap:butt;stroke-linejoin:miter;stroke-opacity:1"
         id="circle4321"
         cx="501.56583"
         cy="500.14648"
         r="500.85336" />
    </clipPath>
    <clipPath
       clipPathUnits="userSpaceOnUse"
       id="clipPath4323">
      <circle
         style="display:inline;fill:#bbc5d8;fill-opacity:1;fill-rule:evenodd;stroke:none;stroke-width:1px;stroke-linecap:butt;stroke-linejoin:miter;stroke-opacity:1"
         id="circle4325"
         cx="501.56583"
         cy="500.14648"
         r="500.85336" />
    </clipPath>
    <clipPath
       clipPathUnits="userSpaceOnUse"
       id="clipPath4327">
      <circle
         style="display:inline;fill:#bbc5d8;fill-opacity:1;fill-rule:evenodd;stroke:none;stroke-width:1px;stroke-linecap:butt;stroke-linejoin:miter;stroke-opacity:1"
         id="circle4329"
         cx="501.56583"
         cy="500.14648"
         r="500.85336" />
    </clipPath>
    <clipPath
       clipPathUnits="userSpaceOnUse"
       id="clipPath4331">
      <circle
         style="display:inline;fill:#bbc5d8;fill-opacity:1;fill-rule:evenodd;stroke:none;stroke-width:1px;stroke-linecap:butt;stroke-linejoin:miter;stroke-opacity:1"
         id="circle4333"
         cx="501.56583"
         cy="500.14648"
         r="500.85336" />
    </clipPath>
    <clipPath
       clipPathUnits="userSpaceOnUse"
       id="clipPath4335">
      <circle
         style="display:inline;fill:#bbc5d8;fill-opacity:1;fill-rule:evenodd;stroke:none;stroke-width:1px;stroke-linecap:butt;stroke-linejoin:miter;stroke-opacity:1"
         id="circle4337"
         cx="501.56583"
         cy="500.14648"
         r="500.85336" />
    </clipPath>
    <clipPath
       clipPathUnits="userSpaceOnUse"
       id="clipPath4339">
      <circle
         style="display:inline;fill:#bbc5d8;fill-opacity:1;fill-rule:evenodd;stroke:none;stroke-width:1px;stroke-linecap:butt;stroke-linejoin:miter;stroke-opacity:1"
         id="circle4341"
         cx="501.56583"
         cy="500.14648"
         r="500.85336" />
    </clipPath>
    <clipPath
       clipPathUnits="userSpaceOnUse"
       id="clipPath4343">
      <circle
         style="display:inline;fill:#bbc5d8;fill-opacity:1;fill-rule:evenodd;stroke:none;stroke-width:1px;stroke-linecap:butt;stroke-linejoin:miter;stroke-opacity:1"
         id="circle4345"
         cx="501.56583"
         cy="500.14648"
         r="500.85336" />
    </clipPath>
  </defs>
  <sodipodi:namedview
     pagecolor="#8effff"
     bordercolor="#666666"
     borderopacity="1"
     objecttolerance="10"
     gridtolerance="10"
     guidetolerance="10"
     inkscape:pageopacity="0"
     inkscape:pageshadow="2"
     inkscape:window-width="1920"
     inkscape:window-height="1056"
     id="namedview4304"
     showgrid="false"
     inkscape:zoom="0.5"
     inkscape:cx="569.23959"
     inkscape:cy="527.05066"
     inkscape:window-x="0"
     inkscape:window-y="24"
     inkscape:window-maximized="1"
     inkscape:current-layer="layer6"
     showguides="true"
     inkscape:guide-bbox="true">
    <sodipodi:guide
       position="582.67445,4741.5134"
       orientation="0,1"
       id="guide4408" />
    <sodipodi:guide
       position="499.56583,1013.2946"
       orientation="1,0"
       id="guide4466" />
    <sodipodi:guide
       position="437.76387,500.85337"
       orientation="0,1"
       id="guide4468" />
  </sodipodi:namedview>
  <g
     inkscape:groupmode="layer"
     id="layer1"
     inkscape:label="background"
     style="display:inline"
     transform="translate(0,-3733)">
    <circle
       style="fill:#bbc5d8;fill-opacity:1;fill-rule:evenodd;stroke:none;stroke-width:1px;stroke-linecap:butt;stroke-linejoin:miter;stroke-opacity:1"
       id="path4470"
       cx="501.56583"
       cy="4233.1465"
       r="500.85336" />
  </g>
  <g
     inkscape:groupmode="layer"
     id="layer6"
     inkscape:label="legs">
    <path
       style="fill:#dbdbbb;fill-opacity:1;fill-rule:evenodd;stroke:none;stroke-width:1px;stroke-linecap:butt;stroke-linejoin:miter;stroke-opacity:1"
       d="m 342.49809,767.12049 1.65427,94.65312 c 0,0 -8.84076,216.79339 -4.79753,337.30789 4.04324,120.5145 22.4465,201.3924 27.14182,270.2579 0,0 28.17224,25.0419 101.21134,10.4341 0,0 -34.19303,-193.9277 -36.15756,-291.9773 -1.67921,-83.8093 10.51272,-240.79158 20.88461,-250.60978 9.34906,-8.84996 66.16072,-9.75533 72.47168,1.46513 7.13415,12.68405 2.48665,160.74245 9.45118,240.75245 8.50127,97.6645 24.2316,269.2757 39.41332,291.4483 20.89161,30.5118 97.80302,21.4757 91.09019,-10.5907 -9.91792,-47.3766 -46.69286,-332.0149 -33.44149,-447.6775 15.10015,-131.79945 7.40827,-171.38108 7.40827,-171.38108 l 1.04341,-77.21277 z"
       id="path4242"
       inkscape:connector-curvature="0"
       sodipodi:nodetypes="ccsccassasssccc"
       clip-path="url(#clipPath4309)"
       transform="matrix(2.3028492,0,0,2.3028492,-622.42845,-72.849065)" />
  </g>
  <g
     inkscape:groupmode="layer"
     id="layer4"
     inkscape:label="torso"
     style="display:inline">
    <path
       style="display:inline;opacity:1;fill:#dbad8b;fill-opacity:1;fill-rule:evenodd;stroke:none;stroke-width:1px;stroke-linecap:butt;stroke-linejoin:miter;stroke-opacity:1"
       d="M 389.2846,676.58647 677.13513,652.49254 654.09811,454.4505 695.57653,162.67063 363.09012,155.48132 Z"
       id="path4963"
       inkscape:connector-curvature="0"
       sodipodi:nodetypes="cccccc"
       clip-path="url(#clipPath4343)" />
    <path
       style="fill:#dde1f0;fill-opacity:1;fill-rule:evenodd;stroke:none;stroke-width:1px;stroke-linecap:butt;stroke-linejoin:miter;stroke-opacity:1"
       d="m 372.93637,638.87174 c 0,0 -273.92258,81.69621 -297.950868,124.94715 -24.028277,43.25091 51.072998,267.51351 57.667938,312.36781 36.2827,246.7706 -5.76682,672.5519 -5.76682,672.5519 0,0 57.75941,173.7247 161.71042,202.5587 103.95099,28.8339 310.44555,31.4769 344.08516,12.2543 33.63962,-19.2226 308.89719,-189.0096 295.30771,-221.7812 -187.42068,-451.9722 -52.86225,-653.5696 -50.45941,-704.0291 2.40286,-50.45937 98.51603,-278.72807 50.45941,-319.57618 -23.80054,-20.23046 -216.25465,-86.50182 -235.47727,-91.30751 -9.61131,-2.40283 -91.90822,46.25448 -169.39948,49.85872 -77.49125,3.60423 -150.17679,-37.84459 -150.17679,-37.84459 z"
       id="path4282"
       inkscape:connector-curvature="0"
       sodipodi:nodetypes="csscsssssssc"
       clip-path="url(#clipPath4339)" />
    <path
       style="fill:none;fill-rule:evenodd;stroke:#c9c9d9;stroke-width:18.97418404;stroke-linecap:butt;stroke-linejoin:miter;stroke-miterlimit:4;stroke-dasharray:none;stroke-opacity:1"
       d="m 522.54108,1986.8589 c -45.32654,-386.0016 -66.66343,-755.4421 0,-1150.95513"
       id="path4284"
       inkscape:connector-curvature="0"
       sodipodi:nodetypes="cc"
       clip-path="url(#clipPath4335)" />
    <path
       style="fill:#c40b29;fill-opacity:1;fill-rule:evenodd;stroke:none;stroke-width:1px;stroke-linecap:butt;stroke-linejoin:miter;stroke-opacity:1"
       d="m 377.74202,643.6774 c 0,0 130.39614,58.53513 307.0041,-16.55327 0,0 -113.00427,191.95981 -155.62586,213.5853 C 486.49864,862.33487 360.92225,691.73397 377.74202,643.6774 Z"
       id="path4286"
       inkscape:connector-curvature="0"
       sodipodi:nodetypes="ccsc"
       clip-path="url(#clipPath4331)" />
    <path
       style="display:inline;fill:#dbad8b;fill-opacity:1;fill-rule:evenodd;stroke:none;stroke-width:1px;stroke-linecap:butt;stroke-linejoin:miter;stroke-opacity:1"
       d="m -138.81839,1923.1891 c 0,0 -2.88834,67.8774 1.44423,89.5403 4.33261,21.6629 1.44419,108.3149 18.77458,124.2011 17.33037,15.8863 86.651874,53.4354 114.0916787,38.9935 27.4397403,-14.4421 62.1004903,-60.6566 51.9911323,-95.3172 -10.109376,-34.6606 12.997777,-21.6633 12.997777,-21.6633 0,0 34.660764,20.2191 30.328166,-18.7743 -4.332619,-38.9932 -69.321522,-77.9865 -75.098297,-122.7568 -5.7768014,-44.7705 -154.529267,5.7767 -154.529267,5.7767 z"
       id="path4280"
       inkscape:connector-curvature="0"
       clip-path="url(#clipPath4327)" />
    <path
       style="fill:#dde1f0;fill-opacity:1;fill-rule:evenodd;stroke:none;stroke-width:1px;stroke-linecap:butt;stroke-linejoin:miter;stroke-opacity:1"
       d="m 70.179851,763.81889 c 0,0 -189.823471,319.57631 -213.851791,531.02521 -24.02833,211.4492 -22.58414,253.9267 -10.56998,624.1125 1.75848,54.1818 194.945582,44.6978 194.604185,-8.6527 -0.535594,-83.6886 -22.609102,-215.146 -17.803453,-359.3156 4.805663,-144.1699 9.175754,-258.547 64.440865,-364.2715 55.265073,-105.7244 84.098993,-108.1273 96.113173,-153.781 12.0141,-45.65387 4.80565,-254.69995 -33.63965,-266.7141 -38.44525,-12.01413 -79.293349,-2.40281 -79.293349,-2.40281 z"
       id="path4305"
       inkscape:connector-curvature="0"
       sodipodi:nodetypes="csssssssc"
       clip-path="url(#clipPath4323)" />
    <path
       style="fill:#c9c9d9;fill-opacity:1;fill-rule:evenodd;stroke:none;stroke-width:1px;stroke-linecap:butt;stroke-linejoin:miter;stroke-opacity:1"
       d="m 669.29557,578.30074 c 30.03859,-0.15198 39.79471,7.17715 44.81263,11.89339 24.76071,23.27193 -24.63633,195.39155 -30.58303,182.64864 -5.94672,-12.74295 -5.91322,-50.80915 -25.48586,-53.52032 -18.12831,-2.5111 -25.09675,11.52316 -36.19077,41.28794 -12.74003,34.18103 -70.84981,64.05357 -80.19461,73.3984 -9.34483,9.34482 134.22548,-182.64863 132.52641,-203.03732 m -286.29105,16.99057 c 0,8.4953 109.58918,187.74583 109.58918,187.74583 -46.85598,-31.39278 -51.12529,-30.24943 -66.72963,-54.31237 -33.08754,-51.0232 -33.22879,-82.36726 -52.02826,-77.86631 -19.34825,4.6323 -1.87517,42.12864 -8.67141,54.87158 -6.79621,12.74293 -48.84009,-78.95114 -34.83069,-117.23492 7.09855,-19.39832 29.73354,-34.83073 51.82126,-33.98115"
       id="path4239"
       inkscape:connector-curvature="0"
       sodipodi:nodetypes="cssasscccsssac"
       clip-path="url(#clipPath4319)" />
  </g>
  <g
     inkscape:groupmode="layer"
     id="layer5"
     inkscape:label="bag" />
  <g
     inkscape:groupmode="layer"
     id="layer2"
     inkscape:label="head"
     style="display:inline">
    <path
       style="display:inline;opacity:1;fill:#e6b692;fill-opacity:1;fill-rule:evenodd;stroke:none;stroke-width:1px;stroke-linecap:butt;stroke-linejoin:miter;stroke-opacity:1"
       d="m 260.49653,204.30059 7.84289,-108.494021 c 0,0 13.07159,-70.586564 94.11558,-81.043805 81.04371,-10.4572511 249.6672,2.614318 249.6672,2.614318 0,0 96.72953,50.979159 98.03662,126.794298 1.30738,75.81516 -14.37869,189.53788 -14.37869,189.53788 0,0 19.60736,2.61431 20.91447,39.21469 0.32636,9.14429 -6.53578,33.98612 -16.99286,47.05772 -10.4574,13.07153 -25.93593,26.35727 -32.67897,32.67896 0,0 -7.64378,2.8576 -20.9145,19.60735 -13.2707,16.74973 -22.16946,54.17355 -41.55009,69.01341 -29.24438,22.39268 -111.83188,68.82204 -137.97502,68.82204 -26.14319,0 -101.15766,9.65798 -128.96423,-31.95566 -69.11706,-103.43649 -89.34949,-154.3975 -78.4295,-192.15219 11.72109,-40.5247 1.3071,-181.69499 1.3071,-181.69499 z"
       id="path4965"
       inkscape:connector-curvature="0"
       sodipodi:nodetypes="ccscscssszssssc" />
    <circle
       style="display:inline;fill:#50626e;fill-opacity:1;fill-rule:evenodd;stroke:none;stroke-width:1px;stroke-linecap:butt;stroke-linejoin:miter;stroke-opacity:1"
       id="path4968"
       cx="455.02875"
       cy="334.99234"
       r="32.768688" />
    <circle
       style="display:inline;fill:#50626e;fill-opacity:1;fill-rule:evenodd;stroke:none;stroke-width:1px;stroke-linecap:butt;stroke-linejoin:miter;stroke-opacity:1"
       id="path4968-7"
       cx="314.82657"
       cy="336.06812"
       r="32.768688" />
    <path
       style="color:#000000;clip-rule:nonzero;display:inline;overflow:visible;visibility:visible;opacity:1;isolation:auto;mix-blend-mode:normal;color-interpolation:sRGB;color-interpolation-filters:linearRGB;solid-color:#000000;solid-opacity:1;fill:#854d34;fill-opacity:1;fill-rule:evenodd;stroke:none;stroke-width:1px;stroke-linecap:butt;stroke-linejoin:miter;stroke-miterlimit:4;stroke-dasharray:none;stroke-dashoffset:0;stroke-opacity:1;color-rendering:auto;image-rendering:auto;shape-rendering:auto;text-rendering:auto;enable-background:accumulate"
       d="m 427.456,256.58697 62.74348,0 c 8.69002,0 15.68605,6.99591 15.68605,15.68589 0,8.68997 -6.99603,15.6859 -15.68605,15.6859 l -62.74348,0 c -8.69004,0 -15.68577,-6.99593 -15.68577,-15.6859 0,-8.68998 6.99573,-15.68589 15.68577,-15.68589 z"
       id="rect4985"
       inkscape:connector-curvature="0" />
    <path
       style="color:#000000;clip-rule:nonzero;display:inline;overflow:visible;visibility:visible;opacity:1;isolation:auto;mix-blend-mode:normal;color-interpolation:sRGB;color-interpolation-filters:linearRGB;solid-color:#000000;solid-opacity:1;fill:#854d34;fill-opacity:1;fill-rule:evenodd;stroke:none;stroke-width:1px;stroke-linecap:butt;stroke-linejoin:miter;stroke-miterlimit:4;stroke-dasharray:none;stroke-dashoffset:0;stroke-opacity:1;color-rendering:auto;image-rendering:auto;shape-rendering:auto;text-rendering:auto;enable-background:accumulate"
       d="m 270.597,257.89407 62.74372,0 c 8.69006,0 15.68582,6.99597 15.68582,15.68595 0,8.68999 -6.99576,15.68588 -15.68582,15.68588 l -62.74372,0 c -8.69003,0 -15.68577,-6.99589 -15.68577,-15.68588 0,-8.68998 6.99574,-15.68595 15.68577,-15.68595 z"
       id="rect4985-3"
       inkscape:connector-curvature="0" />
    <rect
       style="color:#000000;clip-rule:nonzero;display:inline;overflow:visible;visibility:visible;opacity:1;isolation:auto;mix-blend-mode:normal;color-interpolation:sRGB;color-interpolation-filters:linearRGB;solid-color:#000000;solid-opacity:1;fill:#d69e79;fill-opacity:1;fill-rule:evenodd;stroke:none;stroke-width:1px;stroke-linecap:butt;stroke-linejoin:miter;stroke-miterlimit:4;stroke-dasharray:none;stroke-dashoffset:0;stroke-opacity:1;color-rendering:auto;image-rendering:auto;shape-rendering:auto;text-rendering:auto;enable-background:accumulate"
       id="rect5008"
       width="66.40461"
       height="33.202305"
       x="327.58841"
       y="408.60901"
       ry="14.22957" />
    <path
       style="display:inline;fill:#d29669;fill-opacity:1;fill-rule:evenodd;stroke:none;stroke-width:1px;stroke-linecap:butt;stroke-linejoin:miter;stroke-opacity:1"
       d="m 383.01257,481.41808 43.13635,0 c 0,0 -6.5358,24.83603 -43.13635,30.06466 -36.60026,5.22861 -45.75056,-27.45038 -45.75056,-27.45038 z"
       id="path5010"
       inkscape:connector-curvature="0" />
    <path
       style="display:inline;fill:#864e34;fill-opacity:1;fill-rule:evenodd;stroke:none;stroke-width:1px;stroke-linecap:butt;stroke-linejoin:miter;stroke-opacity:1"
       d="m 545.45715,144.17138 c 0,0 -114.19191,47.99087 -162.0877,41.82905 -25.17284,-3.2385 -75.81528,-5.22862 -120.25843,-23.52879 -40.34251,-16.61156 -53.59348,-16.99308 -53.59348,-16.99308 l 45.7506,-10.45727 -40.52215,-22.22166 c 0,0 44.44344,-3.92147 48.36503,-11.7644 3.92129,-7.84301 3.92129,-52.286374 45.75052,-70.586579 C 350.69053,12.148436 427.81292,1.691195 480.09927,2.9983436 532.38528,4.3055129 638.26534,21.298559 648.72246,27.834333 c 10.4574,6.535795 23.52895,7.842944 24.83609,-1.307159 1.30709,-9.150092 13.0716,15.685929 7.84289,23.528831 -5.2287,7.842954 7.8429,9.150144 13.07159,3.921508 5.22871,-5.228657 10.45734,18.300184 1.3071,24.83601 -9.14998,6.535764 24.83604,31.371797 22.22184,49.671967 -2.61448,18.30017 -16.99314,207.83808 -16.99314,207.83808 0,0 -49.67185,-23.52884 -67.97215,13.07154 -18.30029,36.60047 -16.33962,-18.30019 -23.52899,-56.20776 -7.18928,-37.90752 -58.82211,-66.66502 -67.97206,-69.27935 -9.15035,-2.61427 23.52864,-19.60736 24.836,-28.75744 1.30714,-9.15013 -40.52184,-3.92145 -40.52184,-3.92145 0,0 31.37164,-28.75747 32.67874,-35.29333 1.30735,-6.53573 -13.07138,-11.7644 -13.07138,-11.7644 z"
       id="path5013"
       inkscape:connector-curvature="0"
       sodipodi:nodetypes="csscccssssssssscszsscsc" />
  </g>
  <g
     inkscape:groupmode="layer"
     id="layer7"
     inkscape:label="clip" />
</svg>
