<?xml version="1.0" encoding="UTF-8" standalone="no"?>
<!-- Created with Inkscape (http://www.inkscape.org/) -->

<svg
   xmlns:dc="http://purl.org/dc/elements/1.1/"
   xmlns:cc="http://creativecommons.org/ns#"
   xmlns:rdf="http://www.w3.org/1999/02/22-rdf-syntax-ns#"
   xmlns:svg="http://www.w3.org/2000/svg"
   xmlns="http://www.w3.org/2000/svg"
   xmlns:sodipodi="http://sodipodi.sourceforge.net/DTD/sodipodi-0.dtd"
   xmlns:inkscape="http://www.inkscape.org/namespaces/inkscape"
   width="1000"
   height="1000"
   viewBox="0 0 999.99999 1000"
   id="svg2"
   version="1.1"
   inkscape:version="0.91 r13725"
   sodipodi:docname="government.svg">
  <defs
     id="defs4" />
  <sodipodi:namedview
     id="base"
     pagecolor="#b9ffff"
     bordercolor="#d96666"
     borderopacity="1"
     inkscape:pageopacity="0"
     inkscape:pageshadow="2"
     inkscape:zoom="0.7"
     inkscape:cx="367.85714"
     inkscape:cy="405.71429"
     inkscape:document-units="px"
     inkscape:current-layer="svg2"
     showgrid="true"
     inkscape:window-width="1920"
     inkscape:window-height="1056"
     inkscape:window-x="0"
     inkscape:window-y="24"
     inkscape:window-maximized="1"
     units="px"
     inkscape:showpageshadow="false"
     gridtolerance="10"
     inkscape:snap-tangential="true"
     inkscape:snap-perpendicular="true">
    <inkscape:grid
       type="xygrid"
       id="grid4155"
       empspacing="10"
       spacingx="9.9999999"
       spacingy="10" />
  </sodipodi:namedview>
  <metadata
     id="metadata7">
    <rdf:RDF>
      <cc:Work
         rdf:about="">
        <dc:format>image/svg+xml</dc:format>
        <dc:type
           rdf:resource="http://purl.org/dc/dcmitype/StillImage" />
        <dc:title />
      </cc:Work>
    </rdf:RDF>
  </metadata>
  <g
     inkscape:label="Layer 1"
     inkscape:groupmode="layer"
     id="layer1"
     transform="translate(0,-52.362161)" />
  <g
     id="g6398"
     transform="matrix(16.613389,0,0,16.613389,60.000004,114.85715)"
     style="fill:#ffffff;fill-opacity:1">
    <path
       d="m 12.61,21.022 28.03,0 c 0.644,0 1.168,-0.523 1.168,-1.168 0,-0.642 -0.524,-1.167 -1.168,-1.167 l -0.06,0 C 40.052,12.277 35.209,7.099 28.961,6.05 l 0,-1.67 -2.044,0 0,-4.088 C 26.917,0.133 26.786,0 26.625,0 26.464,0 26.333,0.133 26.333,0.292 l 0,4.087 -2.043,0 0,1.67 C 18.042,7.098 13.2,12.276 12.669,18.686 l -0.059,0 c -0.644,0 -1.167,0.525 -1.167,1.167 0,0.646 0.523,1.169 1.167,1.169 z"
       id="path6400"
       inkscape:connector-curvature="0"
       style="fill:#ffffff;fill-opacity:1" />
    <path
       d="m 46.48,50.332 -1.46,0 0,-13.432 1.46,0 c 0.808,0 1.46,-0.65 1.46,-1.46 0,-0.803 -0.652,-1.46 -1.46,-1.46 l -39.709,0 c -0.806,0 -1.46,0.657 -1.46,1.46 0,0.81 0.654,1.46 1.46,1.46 l 1.46,0 0,13.432 -1.46,0 c -0.806,0 -1.46,0.656 -1.46,1.459 0,0.811 0.654,1.46 1.46,1.46 l 39.709,0 c 0.808,0 1.46,-0.649 1.46,-1.46 0,-0.801 -0.652,-1.459 -1.46,-1.459 z m -5.548,0 -2.452,0 0,-13.432 2.452,0 0,13.432 z M 25.399,36.9 l 2.452,0 0,13.432 -2.452,0 0,-13.432 z m -4.087,13.432 -2.453,0 0,-13.432 2.453,0 0,13.432 z M 31.94,36.9 l 2.452,0 0,13.432 -2.452,0 0,-13.432 z m -19.622,0 2.452,0 0,13.432 -2.452,0 0,-13.432 z"
       id="path6402"
       inkscape:connector-curvature="0"
       style="fill:#ffffff;fill-opacity:1" />
    <path
       d="m 10.859,25.986 1.471,0 c 0,0.022 -0.012,0.042 -0.012,0.058 l 0,6.302 2.92,0 0,-6.302 c 0,-0.021 -0.011,-0.042 -0.011,-0.058 l 1.387,0 c 0,0.022 -0.011,0.042 -0.011,0.058 l 0,6.302 2.919,0 0,-6.302 c 0,-0.021 -0.011,-0.042 -0.011,-0.058 l 1.387,0 c 0,0.022 -0.011,0.042 -0.011,0.058 l 0,6.302 2.92,0 0,-6.302 c 0,-0.021 -0.012,-0.042 -0.012,-0.058 l 1.387,0 c 0,0.022 -0.012,0.042 -0.012,0.058 l 0,6.302 2.92,0 0,-6.302 c 0,-0.021 -0.012,-0.042 -0.012,-0.058 l 1.387,0 c 0,0.022 -0.012,0.042 -0.012,0.058 l 0,6.302 2.92,0 0,-6.302 c 0,-0.021 -0.011,-0.042 -0.011,-0.058 l 1.387,0 c 0,0.022 -0.012,0.042 -0.012,0.058 l 0,6.302 2.92,0 0,-6.302 c 0,-0.021 -0.012,-0.042 -0.012,-0.058 l 1.387,0 c 0,0.022 -0.011,0.042 -0.011,0.058 l 0,6.302 2.92,0 0,-6.302 c 0,-0.021 -0.012,-0.042 -0.012,-0.058 l 1.471,0 c 0.808,0 1.46,-0.651 1.46,-1.46 0,-0.807 -0.652,-1.46 -1.46,-1.46 l -31.532,0 c -0.805,0 -1.46,0.653 -1.46,1.46 0,0.805 0.644,1.46 1.451,1.46 z"
       id="path6404"
       inkscape:connector-curvature="0"
       style="fill:#ffffff;fill-opacity:1" />
  </g>
</svg>
