<?xml version="1.0" encoding="UTF-8" standalone="no"?>
<!-- Created with Inkscape (http://www.inkscape.org/) -->

<svg
   xmlns:dc="http://purl.org/dc/elements/1.1/"
   xmlns:cc="http://creativecommons.org/ns#"
   xmlns:rdf="http://www.w3.org/1999/02/22-rdf-syntax-ns#"
   xmlns:svg="http://www.w3.org/2000/svg"
   xmlns="http://www.w3.org/2000/svg"
   xmlns:sodipodi="http://sodipodi.sourceforge.net/DTD/sodipodi-0.dtd"
   xmlns:inkscape="http://www.inkscape.org/namespaces/inkscape"
   id="svg4302"
   version="1.1"
   inkscape:version="0.91 r13725"
   width="1000"
   height="1000"
   viewBox="0 0 1000 1000"
   sodipodi:docname="justin.svg"
   inkscape:export-filename="/home/justin/projects/2016-oct-demo/src/resources/favicon.ico"
   inkscape:export-xdpi="2.8800001"
   inkscape:export-ydpi="2.8800001">
  <metadata
     id="metadata4308">
    <rdf:RDF>
      <cc:Work
         rdf:about="">
        <dc:format>image/svg+xml</dc:format>
        <dc:type
           rdf:resource="http://purl.org/dc/dcmitype/StillImage" />
        <dc:title />
      </cc:Work>
    </rdf:RDF>
  </metadata>
  <defs
     id="defs4306">
    <clipPath
       clipPathUnits="userSpaceOnUse"
       id="clipPath4309">
      <circle
         style="display:inline;fill:#bbc5d8;fill-opacity:1;fill-rule:evenodd;stroke:none;stroke-width:1px;stroke-linecap:butt;stroke-linejoin:miter;stroke-opacity:1"
         id="circle4311"
         cx="499.56583"
         cy="499.14648"
         r="500.85336" />
    </clipPath>
  </defs>
  <sodipodi:namedview
     pagecolor="#8effff"
     bordercolor="#666666"
     borderopacity="1"
     objecttolerance="10"
     gridtolerance="10"
     guidetolerance="10"
     inkscape:pageopacity="0"
     inkscape:pageshadow="2"
     inkscape:window-width="1920"
     inkscape:window-height="1056"
     id="namedview4304"
     showgrid="false"
     inkscape:zoom="1"
     inkscape:cx="420.23959"
     inkscape:cy="438.63697"
     inkscape:window-x="0"
     inkscape:window-y="24"
     inkscape:window-maximized="1"
     inkscape:current-layer="layer6"
     showguides="true"
     inkscape:guide-bbox="true">
    <sodipodi:guide
       position="582.67445,4741.5134"
       orientation="0,1"
       id="guide4408" />
    <sodipodi:guide
       position="499.56583,1013.2946"
       orientation="1,0"
       id="guide4466" />
    <sodipodi:guide
       position="437.76387,500.85337"
       orientation="0,1"
       id="guide4468" />
  </sodipodi:namedview>
  <g
     inkscape:groupmode="layer"
     id="layer1"
     inkscape:label="background"
     style="display:inline"
     transform="translate(0,-3733)">
    <circle
       style="fill:#bbc5d8;fill-opacity:1;fill-rule:evenodd;stroke:none;stroke-width:1px;stroke-linecap:butt;stroke-linejoin:miter;stroke-opacity:1"
       id="path4470"
       cx="499.56583"
       cy="4232.1465"
       r="500.85336" />
  </g>
  <g
     inkscape:groupmode="layer"
     id="layer6"
     inkscape:label="legs">
    <path
       style="fill:#dbdbbb;fill-opacity:1;fill-rule:evenodd;stroke:none;stroke-width:1px;stroke-linecap:butt;stroke-linejoin:miter;stroke-opacity:1"
       d="m 342.49809,767.12049 1.65427,94.65312 c 0,0 -8.84076,216.79339 -4.79753,337.30789 4.04324,120.5145 22.4465,201.3924 27.14182,270.2579 0,0 28.17224,25.0419 101.21134,10.4341 0,0 -34.19303,-193.9277 -36.15756,-291.9773 -1.67921,-83.8093 10.51272,-240.79158 20.88461,-250.60978 9.34906,-8.84996 66.16072,-9.75533 72.47168,1.46513 7.13415,12.68405 2.48665,160.74245 9.45118,240.75245 8.50127,97.6645 24.2316,269.2757 39.41332,291.4483 20.89161,30.5118 97.80302,21.4757 91.09019,-10.5907 -9.91792,-47.3766 -46.69286,-332.0149 -33.44149,-447.6775 15.10015,-131.79945 7.40827,-171.38108 7.40827,-171.38108 l 1.04341,-77.21277 z"
       id="path4242"
       inkscape:connector-curvature="0"
       sodipodi:nodetypes="ccsccassasssccc"
       clip-path="url(#clipPath4309)" />
  </g>
  <g
     inkscape:groupmode="layer"
     id="layer4"
     inkscape:label="torso"
     style="display:inline">
    <path
       style="display:inline;opacity:1;fill:#dbad8b;fill-opacity:1;fill-rule:evenodd;stroke:none;stroke-width:1px;stroke-linecap:butt;stroke-linejoin:miter;stroke-opacity:1"
       d="m 439.33099,325.43838 124.99756,-10.46266 -10.0037,-85.9987 18.01178,-126.70385 -144.38045,-3.12192 z"
       id="path4963"
       inkscape:connector-curvature="0"
       sodipodi:nodetypes="cccccc" />
    <path
       style="fill:#dde1f0;fill-opacity:1;fill-rule:evenodd;stroke:none;stroke-width:1px;stroke-linecap:butt;stroke-linejoin:miter;stroke-opacity:1"
       d="m 432.23186,309.06096 c 0,0 -118.94942,35.47614 -129.38357,54.25763 -10.43415,18.78148 22.17818,116.16633 25.04199,135.64406 15.75557,107.15879 -2.50421,292.05207 -2.50421,292.05207 0,0 25.08172,75.43897 70.22189,87.95996 45.14016,12.52098 134.80932,13.66874 149.41714,5.32142 14.60783,-8.34733 134.13696,-82.07644 128.2358,-96.30729 -81.38643,-196.26651 -22.95515,-283.80909 -21.91173,-305.72082 1.04343,-21.91175 42.78006,-121.03623 21.91173,-138.7743 -10.33526,-8.78497 -93.90743,-37.56296 -102.25475,-39.6498 -4.17366,-1.04342 -39.91065,20.08576 -73.56082,21.65088 -33.65016,1.56512 -65.21347,-16.43381 -65.21347,-16.43381 z"
       id="path4282"
       inkscape:connector-curvature="0"
       sodipodi:nodetypes="csscsssssssc" />
    <path
       style="fill:none;fill-rule:evenodd;stroke:#c9c9d9;stroke-width:8.23943806;stroke-linecap:butt;stroke-linejoin:miter;stroke-miterlimit:4;stroke-dasharray:none;stroke-opacity:1"
       d="m 497.19691,894.41723 c -19.68281,-167.61913 -28.94824,-328.04675 0,-499.79616"
       id="path4284"
       inkscape:connector-curvature="0"
       sodipodi:nodetypes="cc" />
    <path
       style="fill:#c40b29;fill-opacity:1;fill-rule:evenodd;stroke:none;stroke-width:1px;stroke-linecap:butt;stroke-linejoin:miter;stroke-opacity:1"
       d="m 434.31869,311.14779 c 0,0 56.62383,25.41857 133.31489,-7.18817 0,0 -49.0715,83.35753 -67.5797,92.74828 -18.50821,9.39073 -73.03909,-64.6918 -65.73519,-85.56011 z"
       id="path4286"
       inkscape:connector-curvature="0"
       sodipodi:nodetypes="ccsc" />
    <path
       style="display:inline;fill:#dbad8b;fill-opacity:1;fill-rule:evenodd;stroke:none;stroke-width:1px;stroke-linecap:butt;stroke-linejoin:miter;stroke-opacity:1"
       d="m 210.00509,866.76893 c 0,0 -1.25425,29.47535 0.62715,38.88238 1.88141,9.40703 0.62713,47.03515 8.15276,53.93366 7.52562,6.89852 37.62811,23.20406 49.5437,16.93276 11.91556,-6.27147 26.96681,-26.33979 22.57687,-41.39107 -4.38994,-15.05111 5.64422,-9.40703 5.64422,-9.40703 0,0 15.05125,8.77999 13.16984,-8.15277 -1.88141,-16.93258 -30.1025,-33.86517 -32.61103,-53.30644 -2.50855,-19.44128 -67.10351,2.50851 -67.10351,2.50851 z"
       id="path4280"
       inkscape:connector-curvature="0" />
    <path
       style="fill:#dde1f0;fill-opacity:1;fill-rule:evenodd;stroke:none;stroke-width:1px;stroke-linecap:butt;stroke-linejoin:miter;stroke-opacity:1"
       d="m 300.76146,363.31859 c 0,0 -82.42983,138.7743 -92.864,230.59489 -10.43417,91.82058 -9.80704,110.26629 -4.58996,271.01752 0.76361,23.52815 84.65408,19.40974 84.50583,-3.75738 -0.23258,-36.34128 -9.81788,-93.42598 -7.73105,-156.03093 2.08683,-62.60496 3.98452,-112.27263 27.9831,-158.18292 23.99856,-45.91029 36.51954,-46.95371 41.73663,-66.77861 5.21706,-19.8249 2.08683,-110.60208 -14.60784,-115.81916 -16.69464,-5.21707 -34.43271,-1.04341 -34.43271,-1.04341 z"
       id="path4305"
       inkscape:connector-curvature="0"
       sodipodi:nodetypes="csssssssc" />
    <path
       style="fill:#c9c9d9;fill-opacity:1;fill-rule:evenodd;stroke:none;stroke-width:1px;stroke-linecap:butt;stroke-linejoin:miter;stroke-opacity:1"
       d="m 560.92426,282.75833 c 13.0441,-0.066 17.28064,3.11664 19.45965,5.16464 10.7522,10.10571 -10.6982,84.84774 -13.28052,79.31419 -2.58233,-5.53355 -2.56778,-22.0636 -11.0671,-23.24091 -7.87212,-1.09043 -10.89813,5.00387 -15.71565,17.92907 -5.53229,14.84293 -30.76615,27.81492 -34.82408,31.87286 -4.05794,4.05794 58.2867,-79.31419 57.54889,-88.16787 m -124.32036,7.37806 c 0,3.68904 47.58851,81.52763 47.58851,81.52763 -20.34695,-13.63215 -22.20088,-13.13566 -28.97698,-23.58486 -14.36809,-22.15655 -14.42943,-35.76754 -22.593,-33.81303 -8.40187,2.01155 -0.81428,18.29414 -3.76551,23.82769 -2.95122,5.53355 -21.20855,-34.28411 -15.12504,-50.90863 3.08251,-8.42362 12.91163,-15.12506 22.5031,-14.75614"
       id="path4239"
       inkscape:connector-curvature="0"
       sodipodi:nodetypes="cssasscccsssac" />
  </g>
  <g
     inkscape:groupmode="layer"
     id="layer5"
     inkscape:label="bag">
    <path
       style="fill:#1a2015;fill-opacity:1;fill-rule:evenodd;stroke:#000000;stroke-width:1.77380681px;stroke-linecap:butt;stroke-linejoin:miter;stroke-opacity:1"
       d="m 549.09442,701.3853 c 0,0 -9.39074,227.46466 5.21709,230.59489 14.60781,3.13026 92.864,3.13026 92.864,3.13026 0,0 157.55579,-53.21421 155.46896,-119.99282 -2.08685,-66.77861 -3.13026,-183.6412 -19.82492,-186.77143 -8.34732,-1.56512 -33.38929,-31.30246 -89.73375,-12.65141 -56.34444,18.65106 -143.99138,85.69051 -143.99138,85.69051 z"
       id="path4225"
       inkscape:connector-curvature="0"
       sodipodi:nodetypes="cscsssc" />
    <path
       style="fill:#323735;fill-opacity:1;fill-rule:evenodd;stroke:none;stroke-width:1px;stroke-linecap:butt;stroke-linejoin:miter;stroke-opacity:1"
       d="m 644.04526,712.86288 c 0,0 8.34732,218.07391 -1.04341,221.20414 -9.39075,3.13026 -88.69034,-1.0434 -88.69034,-1.0434 0,0 -12.521,-229.55149 -6.26051,-231.63832 6.26051,-2.08683 94.95085,8.34734 95.99426,11.47758 z"
       id="path4227"
       inkscape:connector-curvature="0" />
    <path
       style="fill:#1a2015;fill-opacity:1;fill-rule:evenodd;stroke:none;stroke-width:1px;stroke-linecap:butt;stroke-linejoin:miter;stroke-opacity:1"
       d="m 569.88858,703.65116 c 0,0 -8.46524,-377.97176 47.02788,-383.63432 102.25475,-10.43417 170.07677,304.1557 164.85968,306.24253 -5.21708,2.08683 -32.34588,-16.69465 -43.82346,-18.78148 -11.47757,-2.08683 -54.95342,-328.57393 -94.42914,-268.15788 -29.13944,44.59681 -32.86757,356.54261 -28.69391,368.02019 4.17366,11.47756 -44.94105,-3.68904 -44.94105,-3.68904 z"
       id="path4229"
       inkscape:connector-curvature="0"
       sodipodi:nodetypes="csssssc" />
    <path
       style="fill:#dbad8b;fill-opacity:1;fill-rule:evenodd;stroke:none;stroke-width:1px;stroke-linecap:butt;stroke-linejoin:miter;stroke-opacity:1"
       d="m 599.4562,692.42532 c 0,0 -52.67936,-13.79697 -55.18792,8.15278 -2.50853,21.94974 -30.72964,28.68861 -26.33968,44.13323 4.38994,15.44463 25.71255,58.08982 58.3236,49.93706 32.61103,-8.15275 41.41344,-24.93264 42.64519,-34.25868 4.38995,-33.23818 34.49246,-7.75939 26.33971,-26.57345 -8.15278,-18.81406 -45.7809,-41.39094 -45.7809,-41.39094 z"
       id="path4278"
       inkscape:connector-curvature="0"
       sodipodi:nodetypes="csssssc" />
    <path
       style="display:inline;fill:#dde1f0;fill-opacity:1;fill-rule:evenodd;stroke:none;stroke-width:1px;stroke-linecap:butt;stroke-linejoin:miter;stroke-opacity:1"
       d="m 668.04382,335.66807 c 0,0 162.77285,192.51021 159.64261,253.02833 -3.13025,60.51812 -158.59921,159.64262 -184.6846,162.77287 -26.08539,3.13026 -47.99712,-47.99712 -40.6932,-64.69178 7.3039,-16.69465 102.25473,-75.12596 127.29671,-100.16792 0,0 -29.21564,-59.47468 -81.38642,-129.38355 -52.1708,-69.90885 19.8249,-121.55795 19.8249,-121.55795 z"
       id="path4322"
       inkscape:connector-curvature="0"
       sodipodi:nodetypes="cssscsc" />
  </g>
  <g
     inkscape:groupmode="layer"
     id="layer2"
     inkscape:label="head"
     style="display:inline">
    <path
       style="display:inline;opacity:1;fill:#e6b692;fill-opacity:1;fill-rule:evenodd;stroke:none;stroke-width:1px;stroke-linecap:butt;stroke-linejoin:miter;stroke-opacity:1"
       d="m 383.40546,120.35076 3.40573,-47.11295 c 0,0 5.67627,-30.65184 40.86919,-35.19284 35.1928,-4.54101 108.41665,1.13525 108.41665,1.13525 0,0 42.00428,22.13743 42.57188,55.05975 0.56772,32.92233 -6.24387,82.30581 -6.24387,82.30581 0,0 8.51439,1.13525 9.082,17.02877 0.14172,3.97086 -2.83813,14.75829 -7.37906,20.43456 -4.54107,5.67625 -11.26254,11.44551 -14.19067,14.19067 0,0 -3.31927,1.2409 -9.08201,8.51439 -5.76273,7.27348 -9.62697,23.52457 -18.0429,29.9687 -12.69922,9.7239 -48.5624,29.8856 -59.91492,29.8856 -11.35254,0 -43.92717,4.19393 -56.00203,-13.87657 -30.01371,-44.91674 -38.79954,-67.04629 -34.05759,-83.44106 5.08982,-17.59764 0.5676,-78.90008 0.5676,-78.90008 z"
       id="path4965"
       inkscape:connector-curvature="0"
       sodipodi:nodetypes="ccscscssszssssc" />
    <circle
       style="display:inline;fill:#50626e;fill-opacity:1;fill-rule:evenodd;stroke:none;stroke-width:1px;stroke-linecap:butt;stroke-linejoin:miter;stroke-opacity:1"
       id="path4968"
       cx="467.88004"
       cy="177.10297"
       r="14.229628" />
    <circle
       style="display:inline;fill:#50626e;fill-opacity:1;fill-rule:evenodd;stroke:none;stroke-width:1px;stroke-linecap:butt;stroke-linejoin:miter;stroke-opacity:1"
       id="path4968-7"
       cx="406.99799"
       cy="177.5701"
       r="14.229628" />
    <path
       style="color:#000000;clip-rule:nonzero;display:inline;overflow:visible;visibility:visible;opacity:1;isolation:auto;mix-blend-mode:normal;color-interpolation:sRGB;color-interpolation-filters:linearRGB;solid-color:#000000;solid-opacity:1;fill:#854d34;fill-opacity:1;fill-rule:evenodd;stroke:none;stroke-width:1px;stroke-linecap:butt;stroke-linejoin:miter;stroke-miterlimit:4;stroke-dasharray:none;stroke-dashoffset:0;stroke-opacity:1;color-rendering:auto;image-rendering:auto;shape-rendering:auto;text-rendering:auto;enable-background:accumulate"
       d="m 455.90672,143.05584 27.24602,0 c 3.7736,0 6.81158,3.03793 6.81158,6.81151 0,3.77358 -3.03798,6.81152 -6.81158,6.81152 l -27.24602,0 c -3.7736,0 -6.81146,-3.03794 -6.81146,-6.81152 0,-3.77358 3.03786,-6.81151 6.81146,-6.81151 z"
       id="rect4985"
       inkscape:connector-curvature="0" />
    <path
       style="color:#000000;clip-rule:nonzero;display:inline;overflow:visible;visibility:visible;opacity:1;isolation:auto;mix-blend-mode:normal;color-interpolation:sRGB;color-interpolation-filters:linearRGB;solid-color:#000000;solid-opacity:1;fill:#854d34;fill-opacity:1;fill-rule:evenodd;stroke:none;stroke-width:1px;stroke-linecap:butt;stroke-linejoin:miter;stroke-miterlimit:4;stroke-dasharray:none;stroke-dashoffset:0;stroke-opacity:1;color-rendering:auto;image-rendering:auto;shape-rendering:auto;text-rendering:auto;enable-background:accumulate"
       d="m 387.79154,143.62344 27.24612,0 c 3.77361,0 6.81149,3.03796 6.81149,6.81154 0,3.77358 -3.03788,6.81151 -6.81149,6.81151 l -27.24612,0 c -3.7736,0 -6.81147,-3.03793 -6.81147,-6.81151 0,-3.77358 3.03787,-6.81154 6.81147,-6.81154 z"
       id="rect4985-3"
       inkscape:connector-curvature="0" />
    <rect
       style="color:#000000;clip-rule:nonzero;display:inline;overflow:visible;visibility:visible;opacity:1;isolation:auto;mix-blend-mode:normal;color-interpolation:sRGB;color-interpolation-filters:linearRGB;solid-color:#000000;solid-opacity:1;fill:#d69e79;fill-opacity:1;fill-rule:evenodd;stroke:none;stroke-width:1px;stroke-linecap:butt;stroke-linejoin:miter;stroke-miterlimit:4;stroke-dasharray:none;stroke-dashoffset:0;stroke-opacity:1;color-rendering:auto;image-rendering:auto;shape-rendering:auto;text-rendering:auto;enable-background:accumulate"
       id="rect5008"
       width="28.835848"
       height="14.417924"
       x="412.53976"
       y="209.07065"
       ry="6.1791148" />
    <path
       style="display:inline;fill:#d29669;fill-opacity:1;fill-rule:evenodd;stroke:none;stroke-width:1px;stroke-linecap:butt;stroke-linejoin:miter;stroke-opacity:1"
       d="m 436.6074,240.68755 18.73173,0 c 0,0 -2.83814,10.78491 -18.73173,13.05542 -15.89347,2.27049 -19.86694,-11.92018 -19.86694,-11.92018 z"
       id="path5010"
       inkscape:connector-curvature="0" />
    <path
       style="display:inline;fill:#864e34;fill-opacity:1;fill-rule:evenodd;stroke:none;stroke-width:1px;stroke-linecap:butt;stroke-linejoin:miter;stroke-opacity:1"
       d="m 507.14809,94.23997 c 0,0 -49.58723,20.83978 -70.38572,18.16404 -10.93117,-1.4063 -32.92238,-2.2705 -52.22158,-10.21725 -17.51852,-7.21348 -23.27268,-7.37916 -23.27268,-7.37916 l 19.86695,-4.54101 -17.59653,-9.64964 c 0,0 19.29933,-1.70287 21.00226,-5.10863 1.7028,-3.40578 1.7028,-22.70507 19.86692,-30.65184 18.16401,-7.94677 51.654,-12.48777 74.35907,-11.92015 22.70492,0.56763 68.68277,7.94677 73.22372,10.7849 4.54107,2.83813 10.21732,3.40575 10.78494,-0.56763 0.5676,-3.97338 5.67627,6.81153 3.40573,10.21727 -2.27053,3.40576 3.40574,3.9734 5.67627,1.70289 2.27054,-2.27051 4.54105,7.94676 0.5676,10.78491 -3.97333,2.83812 10.78492,13.62303 9.64972,21.56979 -1.13533,7.94674 -7.37918,90.25257 -7.37918,90.25257 0,0 -21.56974,-10.21727 -29.51655,5.67625 -7.9468,15.89356 -7.09539,-7.94676 -10.21733,-24.40792 -3.12191,-16.46114 -25.54319,-28.94893 -29.51651,-30.08419 -3.97349,-1.13523 10.21719,-8.51439 10.7849,-12.48777 0.56762,-3.97339 -17.59639,-1.70286 -17.59639,-1.70286 0,0 13.62296,-12.48778 14.19056,-15.32594 0.56772,-2.83811 -5.67617,-5.10863 -5.67617,-5.10863 z"
       id="path5013"
       inkscape:connector-curvature="0"
       sodipodi:nodetypes="csscccssssssssscszsscsc" />
  </g>
  <g
     inkscape:groupmode="layer"
     id="layer7"
     inkscape:label="clip" />
</svg>
