<?xml version="1.0" encoding="UTF-8" standalone="no"?>
<!-- Created with Inkscape (http://www.inkscape.org/) -->

<svg
   xmlns:dc="http://purl.org/dc/elements/1.1/"
   xmlns:cc="http://creativecommons.org/ns#"
   xmlns:rdf="http://www.w3.org/1999/02/22-rdf-syntax-ns#"
   xmlns:svg="http://www.w3.org/2000/svg"
   xmlns="http://www.w3.org/2000/svg"
   xmlns:sodipodi="http://sodipodi.sourceforge.net/DTD/sodipodi-0.dtd"
   xmlns:inkscape="http://www.inkscape.org/namespaces/inkscape"
   id="svg4302"
   version="1.1"
   inkscape:version="0.91 r13725"
   width="1000"
   height="1000"
   viewBox="0 0 1000 1000"
   sodipodi:docname="justin.svg"
   inkscape:export-filename="/home/justin/projects/2016-oct-demo/src/resources/favicon.ico"
   inkscape:export-xdpi="2.8800001"
   inkscape:export-ydpi="2.8800001">
  <metadata
     id="metadata4308">
    <rdf:RDF>
      <cc:Work
         rdf:about="">
        <dc:format>image/svg+xml</dc:format>
        <dc:type
           rdf:resource="http://purl.org/dc/dcmitype/StillImage" />
        <dc:title />
      </cc:Work>
    </rdf:RDF>
  </metadata>
  <defs
     id="defs4306" />
  <sodipodi:namedview
     pagecolor="#8effff"
     bordercolor="#666666"
     borderopacity="1"
     objecttolerance="10"
     gridtolerance="10"
     guidetolerance="10"
     inkscape:pageopacity="0"
     inkscape:pageshadow="2"
     inkscape:window-width="1920"
     inkscape:window-height="1056"
     id="namedview4304"
     showgrid="false"
     inkscape:zoom="1"
     inkscape:cx="444.86456"
     inkscape:cy="574.5072"
     inkscape:window-x="0"
     inkscape:window-y="24"
     inkscape:window-maximized="1"
     inkscape:current-layer="layer6"
     showguides="true"
     inkscape:guide-bbox="true">
    <sodipodi:guide
       position="582.67445,4741.5134"
       orientation="0,1"
       id="guide4408" />
    <sodipodi:guide
       position="499.56583,1013.2946"
       orientation="1,0"
       id="guide4466" />
    <sodipodi:guide
       position="437.76387,500.85337"
       orientation="0,1"
       id="guide4468" />
  </sodipodi:namedview>
  <g
     inkscape:groupmode="layer"
     id="layer1"
     inkscape:label="background"
     style="display:inline"
     transform="translate(0,-3733)"
     sodipodi:insensitive="true">
    <circle
       style="fill:#e3eaeb;fill-opacity:1;fill-rule:evenodd;stroke:none;stroke-width:1px;stroke-linecap:butt;stroke-linejoin:miter;stroke-opacity:1"
       id="path4470"
       cx="499.56583"
       cy="4232.1465"
       r="500.85336" />
  </g>
  <g
     inkscape:groupmode="layer"
     id="layer6"
     inkscape:label="head"
     style="display:inline;opacity:1">
    <path
       style="fill:#dbad8b;fill-opacity:1;fill-rule:evenodd;stroke:none;stroke-width:1px;stroke-linecap:butt;stroke-linejoin:miter;stroke-opacity:1"
       d="M 429.03863,822.85609 701.02285,801.28101 698.57236,619.87513 718.44777,362.6673 404.28781,356.22959 Z"
       id="path4963"
       inkscape:connector-curvature="0"
       sodipodi:nodetypes="cccccc" />
    <path
       style="fill:#e6b692;fill-opacity:1;fill-rule:evenodd;stroke:none;stroke-width:1px;stroke-linecap:butt;stroke-linejoin:miter;stroke-opacity:1"
       d="m 283.25898,390.99319 7.72524,-106.86588 c 0,0 12.87541,-69.52721 92.70294,-79.82753 79.82753,-10.30033 245.9203,2.57508 245.9203,2.57508 0,0 95.27802,50.21409 96.56556,124.89146 1.28754,74.67736 -14.16295,186.69341 -14.16295,186.69341 0,0 19.31311,2.57509 20.60065,38.62622 0.32168,9.00705 -6.4377,33.47607 -16.73803,46.35148 -10.30032,12.8754 -25.5466,25.96172 -32.18852,32.18852 0,0 -7.5291,2.81474 -20.60065,19.31311 -13.07155,16.49837 -21.83683,53.36048 -40.92656,67.97769 -28.80544,22.05663 -110.15342,67.78918 -135.90424,67.78918 -25.75081,0 -99.6396,9.51306 -127.02883,-31.47606 -68.07977,-101.88418 -88.00844,-152.08042 -77.25245,-189.2685 11.54513,-39.9165 1.28754,-178.96818 1.28754,-178.96818 z"
       id="path4965"
       inkscape:connector-curvature="0"
       sodipodi:nodetypes="ccscscssszssssc" />
  </g>
  <g
     inkscape:groupmode="layer"
     id="layer7"
     inkscape:label="face"
     style="display:inline">
    <circle
       style="fill:#50626e;fill-opacity:1;fill-rule:evenodd;stroke:none;stroke-width:1px;stroke-linecap:butt;stroke-linejoin:miter;stroke-opacity:1"
       id="path4968"
       cx="479.90125"
       cy="519.74725"
       r="34.763603" />
    <circle
       style="fill:#50626e;fill-opacity:1;fill-rule:evenodd;stroke:none;stroke-width:1px;stroke-linecap:butt;stroke-linejoin:miter;stroke-opacity:1"
       id="path4968-7"
       cx="339.27505"
       cy="519.08594"
       r="34.763603" />
    <path
       style="color:#000000;clip-rule:nonzero;display:inline;overflow:visible;visibility:visible;opacity:1;isolation:auto;mix-blend-mode:normal;color-interpolation:sRGB;color-interpolation-filters:linearRGB;solid-color:#000000;solid-opacity:1;fill:#854d34;fill-opacity:1;fill-rule:evenodd;stroke:none;stroke-width:1px;stroke-linecap:butt;stroke-linejoin:miter;stroke-miterlimit:4;stroke-dasharray:none;stroke-dashoffset:0;stroke-opacity:1;color-rendering:auto;image-rendering:auto;shape-rendering:auto;text-rendering:auto;enable-background:accumulate"
       d="m 447.71274,442.49484 61.80196,0 c 8.55958,0 15.45049,6.89092 15.45049,15.45049 0,8.55957 -6.89091,15.45049 -15.45049,15.45049 l -61.80196,0 c -8.55957,0 -15.45049,-6.89092 -15.45049,-15.45049 0,-8.55957 6.89092,-15.45049 15.45049,-15.45049 z"
       id="rect4985"
       inkscape:connector-curvature="0" />
    <path
       style="color:#000000;clip-rule:nonzero;display:inline;overflow:visible;visibility:visible;opacity:1;isolation:auto;mix-blend-mode:normal;color-interpolation:sRGB;color-interpolation-filters:linearRGB;solid-color:#000000;solid-opacity:1;fill:#854d34;fill-opacity:1;fill-rule:evenodd;stroke:none;stroke-width:1px;stroke-linecap:butt;stroke-linejoin:miter;stroke-miterlimit:4;stroke-dasharray:none;stroke-dashoffset:0;stroke-opacity:1;color-rendering:auto;image-rendering:auto;shape-rendering:auto;text-rendering:auto;enable-background:accumulate"
       d="m 293.20784,443.78238 61.80196,0 c 8.55958,0 15.45049,6.89092 15.45049,15.45049 0,8.55957 -6.89091,15.45049 -15.45049,15.45049 l -61.80196,0 c -8.55957,0 -15.45049,-6.89092 -15.45049,-15.45049 0,-8.55957 6.89092,-15.45049 15.45049,-15.45049 z"
       id="rect4985-3"
       inkscape:connector-curvature="0" />
    <rect
       style="color:#000000;clip-rule:nonzero;display:inline;overflow:visible;visibility:visible;opacity:1;isolation:auto;mix-blend-mode:normal;color-interpolation:sRGB;color-interpolation-filters:linearRGB;solid-color:#000000;solid-opacity:1;fill:#d69e79;fill-opacity:1;fill-rule:evenodd;stroke:none;stroke-width:1px;stroke-linecap:butt;stroke-linejoin:miter;stroke-miterlimit:4;stroke-dasharray:none;stroke-dashoffset:0;stroke-opacity:1;color-rendering:auto;image-rendering:auto;shape-rendering:auto;text-rendering:auto;enable-background:accumulate"
       id="rect5008"
       width="72.102287"
       height="36.051144"
       x="345.99704"
       y="590.56201"
       ry="15.4505" />
    <path
       style="fill:#d29669;fill-opacity:1;fill-rule:evenodd;stroke:none;stroke-width:1px;stroke-linecap:butt;stroke-linejoin:miter;stroke-opacity:1"
       d="m 403.93634,663.95185 42.48885,0 c 0,0 -6.43771,24.46327 -42.48885,29.61344 -36.05114,5.15016 -45.06393,-27.03836 -45.06393,-27.03836 z"
       id="path5010"
       inkscape:connector-curvature="0" />
  </g>
  <g
     inkscape:groupmode="layer"
     id="layer8"
     inkscape:label="hair">
    <path
       style="fill:#864e34;fill-opacity:1;fill-rule:evenodd;stroke:none;stroke-width:1px;stroke-linecap:butt;stroke-linejoin:miter;stroke-opacity:1"
       d="m 563.94288,331.76632 c 0,0 -112.4782,47.27065 -159.65506,41.20131 -24.79519,-3.18992 -74.67737,-5.15016 -118.45376,-23.17574 -39.73692,-16.36226 -52.78917,-16.73803 -52.78917,-16.73803 l 45.06393,-10.30033 -39.91377,-21.88819 c 0,0 43.77639,-3.86262 47.63901,-11.58787 3.86262,-7.72524 3.86262,-51.50163 45.06393,-69.5272 41.2013,-18.02557 117.1662,-28.3259 168.66784,-27.03836 51.50164,1.28754 155.79244,18.02557 166.09277,24.46328 10.30033,6.4377 23.17573,7.72524 24.46327,-1.28754 1.28755,-9.01279 12.87541,15.45049 7.72525,23.17573 -5.15016,7.72525 7.72524,9.01279 12.87541,3.86262 5.15016,-5.15016 10.30032,18.02557 1.28754,24.46328 -9.01279,6.4377 24.46327,30.90098 21.88819,48.92655 -2.57508,18.02557 -16.73803,204.71899 -16.73803,204.71899 0,0 -48.92655,-23.17574 -66.95212,12.87541 -18.02557,36.05114 -16.09426,-18.02557 -23.17573,-55.36426 -7.08148,-37.33868 -57.93934,-65.66458 -66.95213,-68.23966 -9.01278,-2.57508 23.17574,-19.31311 24.46328,-28.3259 1.28754,-9.01279 -39.91377,-3.86262 -39.91377,-3.86262 0,0 30.90098,-28.3259 32.18852,-34.7636 1.28754,-6.43771 -12.8754,-11.58787 -12.8754,-11.58787 z"
       id="path5013"
       inkscape:connector-curvature="0"
       sodipodi:nodetypes="csscccssssssssscszsscsc" />
  </g>
</svg>
