<?xml version="1.0" encoding="UTF-8" standalone="no"?>
<!-- Created with Inkscape (http://www.inkscape.org/) -->

<svg
   xmlns:dc="http://purl.org/dc/elements/1.1/"
   xmlns:cc="http://creativecommons.org/ns#"
   xmlns:rdf="http://www.w3.org/1999/02/22-rdf-syntax-ns#"
   xmlns:svg="http://www.w3.org/2000/svg"
   xmlns="http://www.w3.org/2000/svg"
   xmlns:sodipodi="http://sodipodi.sourceforge.net/DTD/sodipodi-0.dtd"
   xmlns:inkscape="http://www.inkscape.org/namespaces/inkscape"
   id="svg4302"
   version="1.1"
   inkscape:version="0.91 r13725"
   width="1000"
   height="1000"
   viewBox="0 0 1000 1000"
   sodipodi:docname="justin.svg"
   inkscape:export-filename="/home/justin/projects/2016-oct-demo/src/resources/favicon.ico"
   inkscape:export-xdpi="2.8800001"
   inkscape:export-ydpi="2.8800001">
  <metadata
     id="metadata4308">
    <rdf:RDF>
      <cc:Work
         rdf:about="">
        <dc:format>image/svg+xml</dc:format>
        <dc:type
           rdf:resource="http://purl.org/dc/dcmitype/StillImage" />
        <dc:title />
      </cc:Work>
    </rdf:RDF>
  </metadata>
  <defs
     id="defs4306">
    <inkscape:perspective
       sodipodi:type="inkscape:persp3d"
       inkscape:vp_x="0 : 500 : 1"
       inkscape:vp_y="0 : 1000 : 0"
       inkscape:vp_z="1000 : 500 : 1"
       inkscape:persp3d-origin="500 : 333.33333 : 1"
       id="perspective4243" />
  </defs>
  <sodipodi:namedview
     pagecolor="#8effff"
     bordercolor="#666666"
     borderopacity="1"
     objecttolerance="10"
     gridtolerance="10"
     guidetolerance="10"
     inkscape:pageopacity="0"
     inkscape:pageshadow="2"
     inkscape:window-width="1920"
     inkscape:window-height="1056"
     id="namedview4304"
     showgrid="false"
     inkscape:zoom="2"
     inkscape:cx="577.53667"
     inkscape:cy="188.01251"
     inkscape:window-x="0"
     inkscape:window-y="24"
     inkscape:window-maximized="1"
     inkscape:current-layer="layer4"
     showguides="true"
     inkscape:guide-bbox="true">
    <sodipodi:guide
       position="582.67445,4741.5134"
       orientation="0,1"
       id="guide4408" />
    <sodipodi:guide
       position="499.56583,1013.2946"
       orientation="1,0"
       id="guide4466" />
    <sodipodi:guide
       position="437.76387,500.85337"
       orientation="0,1"
       id="guide4468" />
  </sodipodi:namedview>
  <g
     inkscape:groupmode="layer"
     id="layer1"
     inkscape:label="background"
     style="display:inline"
     transform="translate(0,-3733)">
    <circle
       style="fill:#bbc5d8;fill-opacity:1;fill-rule:evenodd;stroke:none;stroke-width:1px;stroke-linecap:butt;stroke-linejoin:miter;stroke-opacity:1"
       id="path4470"
       cx="499.56583"
       cy="4232.1465"
       r="478.22595" />
  </g>
  <g
     inkscape:groupmode="layer"
     id="layer6"
     inkscape:label="legs">
    <path
       style="fill:#dbdbbb;fill-opacity:1;fill-rule:evenodd;stroke:none;stroke-width:1px;stroke-linecap:butt;stroke-linejoin:miter;stroke-opacity:1"
       clip-path="none"
       d="M 639.87109 763.99023 L 342.49805 767.12109 L 344.15234 861.77344 C 344.15234 861.77344 342.66644 898.47712 341.19141 949.78906 A 478.22595 478.22595 0 0 0 458.86328 975.33398 C 462.07733 962.19305 465.01534 953.47677 467.28516 951.32812 C 476.63422 942.47816 503.03865 945.10962 509.34961 956.33008 C 510.75661 958.83163 512.22615 966.18789 513.74609 976.87109 A 478.22595 478.22595 0 0 0 636.99023 956.78906 C 644.27659 869.27189 638.82813 841.20312 638.82812 841.20312 L 639.87109 763.99023 z "
       id="path4242" />
  </g>
  <g
     inkscape:groupmode="layer"
     id="layer4"
     inkscape:label="torso"
     style="display:inline">
    <path
       style="color:#000000;clip-rule:nonzero;display:inline;overflow:visible;visibility:visible;opacity:1;isolation:auto;mix-blend-mode:normal;color-interpolation:sRGB;color-interpolation-filters:linearRGB;solid-color:#000000;solid-opacity:1;fill:#0d3076;fill-opacity:1;fill-rule:evenodd;stroke:none;stroke-width:5;stroke-linecap:butt;stroke-linejoin:miter;stroke-miterlimit:4;stroke-dasharray:none;stroke-dashoffset:0;stroke-opacity:1;color-rendering:auto;image-rendering:auto;shape-rendering:auto;text-rendering:auto;enable-background:accumulate"
       d="m 387.1723,302 197.6554,0 c 34.99745,0 63.42432,28.17576 63.1723,63.1723 l -2.5,347.1554 C 645.24798,747.32424 560.74248,902.89278 527.8277,891 L 496,879.5 l -30.8277,11 C 432.21039,902.26153 331.75011,764.53072 331.07107,729.53986 L 324,365.1723 C 323.32095,330.18144 352.17485,302 387.1723,302 Z"
       id="rect4258"
       inkscape:connector-curvature="0"
       sodipodi:nodetypes="ssssscssss" />
    <path
       style="display:inline;opacity:1;fill:#d8a681;fill-opacity:1;fill-rule:evenodd;stroke:none;stroke-width:1px;stroke-linecap:butt;stroke-linejoin:miter;stroke-opacity:1"
       d="m 439.33099,325.43838 124.99756,-10.46266 1.4963,-95.4987 6.51178,-117.20385 -144.38045,-3.12192 z"
       id="path4963"
       inkscape:connector-curvature="0"
       sodipodi:nodetypes="cccccc" />
    <path
       style="fill:none;fill-rule:evenodd;stroke:#0b1b41;stroke-width:8.19623756;stroke-linecap:butt;stroke-linejoin:miter;stroke-miterlimit:4;stroke-dasharray:none;stroke-opacity:1"
       d="m 495.19641,877.91509 c 2.37025,-162.80615 2.37025,-305.52202 0,-483.29183"
       id="path4284"
       inkscape:connector-curvature="0"
       sodipodi:nodetypes="cc" />
    <path
       style="fill:#c40b29;fill-opacity:1;fill-rule:evenodd;stroke:none;stroke-width:1px;stroke-linecap:butt;stroke-linejoin:miter;stroke-opacity:1"
       d="m 434.31869,311.14779 c 0,0 56.62383,25.41857 133.31489,-7.18817 0,0 -49.0715,83.35753 -67.5797,92.74828 -18.50821,9.39073 -73.03909,-64.6918 -65.73519,-85.56011 z"
       id="path4286"
       inkscape:connector-curvature="0"
       sodipodi:nodetypes="ccsc" />
    <path
       style="display:inline;fill:#dbad8b;fill-opacity:1;fill-rule:evenodd;stroke:none;stroke-width:1px;stroke-linecap:butt;stroke-linejoin:miter;stroke-opacity:1"
       d="m 218.49037,864.64761 c 0,0 -1.25425,29.47535 0.62715,38.88238 1.88141,9.40703 9.81952,66.12703 17.34515,73.02554 7.52562,6.89852 41.87075,25.32537 53.78634,19.05408 11.91556,-6.27147 13.53178,-47.55299 9.14184,-62.60427 -4.38994,-15.05111 9.88686,-0.21464 9.88686,-0.21464 0,0 23.53653,15.85106 21.65512,-1.0817 -1.88141,-16.93258 -42.83042,-50.12863 -45.33895,-69.5699 -2.50855,-19.44128 -67.10351,2.50851 -67.10351,2.50851 z"
       id="path4280"
       inkscape:connector-curvature="0"
       sodipodi:nodetypes="csscscssc" />
    <path
       style="fill:#0d3076;fill-opacity:1;fill-rule:evenodd;stroke:none;stroke-width:1px;stroke-linecap:butt;stroke-linejoin:miter;stroke-opacity:1"
       d="m 201.8264,612.33127 c -2.94079,145.7979 2.92083,192.99778 5.30953,240.61192 1.1795,23.51097 84.65408,19.40974 84.50583,-3.75738 -0.23258,-36.34128 -2.00564,-75.12586 -8.43816,-154.61672 -6.43253,-79.49085 1.86321,-154.69903 25.86178,-200.60932 23.99857,-45.91029 36.51954,-46.95371 41.73663,-66.77861 C 356.01907,407.35626 449.36916,285.89574 335.19417,313.362 221.01918,340.82826 203.96833,544.81275 201.8264,612.33127 Z"
       id="path4305"
       inkscape:connector-curvature="0"
       sodipodi:nodetypes="csszzszc" />
    <path
       style="fill:#0b1b41;fill-opacity:1;fill-rule:evenodd;stroke:none;stroke-width:1px;stroke-linecap:butt;stroke-linejoin:miter;stroke-opacity:1"
       d="m 560.92426,282.75833 c 13.0441,-0.066 26.47595,-0.26959 30.45965,9.78964 5.29159,13.36179 -19.4482,100.84774 -22.03052,95.31419 -2.58233,-5.53355 -11.46596,-42.52501 -13.3171,-43.86591 -1.34204,-0.97213 -24.59065,25.05407 -24.59065,25.05407 -16.91346,16.32483 -22.64115,23.31492 -30.57408,28.12286 -4.90778,2.97447 62.9117,-82.68919 62.17389,-91.54287 m -124.32036,7.37806 c 0,3.68904 53.06859,84.53283 53.06859,84.53283 -2.13895,-0.0203 -32.30868,-21.68017 -34.81061,-25.35262 -2.83761,-4.16517 -28.95696,-29.39362 -28.95696,-29.39362 0,0 -17.0425,45.42969 -19.14509,44.86412 -3.32309,-0.89387 -1.82129,-80.75227 4.3204,-86.7943 6.1218,-6.02245 15.56328,-5.93267 25.15475,-5.56375"
       id="path4239"
       inkscape:connector-curvature="0"
       sodipodi:nodetypes="cssssscccscssc" />
  </g>
  <g
     inkscape:groupmode="layer"
     id="layer5"
     inkscape:label="bag"
     style="display:inline">
    <path
       style="fill:#1a2015;fill-opacity:1;fill-rule:evenodd;stroke:none;stroke-width:1.77380681px;stroke-linecap:butt;stroke-linejoin:miter;stroke-opacity:1"
       d="m 567.47919,769.26755 5.21709,230.59494 92.864,3.13021 c 0,0 157.55579,-53.21421 155.46896,-119.99282 -2.08685,-66.77861 -3.13026,-183.6412 -19.82492,-186.77143 -8.34732,-1.56512 -33.38929,-31.30246 -89.73375,-12.65141 -56.34444,18.65106 -143.99138,85.69051 -143.99138,85.69051 z"
       id="path4225"
       inkscape:connector-curvature="0"
       sodipodi:nodetypes="cccsssc" />
    <path
       style="fill:#323735;fill-opacity:1;fill-rule:evenodd;stroke:none;stroke-width:1px;stroke-linecap:butt;stroke-linejoin:miter;stroke-opacity:1"
       d="m 662.43003,780.74513 c 0,0 8.34732,218.07396 -1.04341,221.20417 -9.39075,3.1302 -88.69034,-1.0434 -88.69034,-1.0434 0,0 -12.521,-229.55152 -6.26051,-231.63835 6.26051,-2.08683 94.95085,8.34734 95.99426,11.47758 z"
       id="path4227"
       inkscape:connector-curvature="0" />
    <path
       style="fill:#1a2015;fill-opacity:1;fill-rule:evenodd;stroke:none;stroke-width:1px;stroke-linecap:butt;stroke-linejoin:miter;stroke-opacity:1"
       d="m 584.03071,764.46234 c 0,0 -31.79976,-455.0464 23.69336,-460.70896 102.25475,-10.43417 190.58287,382.64455 185.36578,384.73138 -5.21708,2.08683 -36.58852,-20.23018 -48.0661,-22.31701 -11.47757,-2.08683 -55.21688,-393.27725 -110.6926,-343.1112 -39.51293,35.73109 -5.99751,441.39543 -1.82385,452.87301 4.17366,11.47756 -48.47659,-11.46722 -48.47659,-11.46722 z"
       id="path4229"
       inkscape:connector-curvature="0"
       sodipodi:nodetypes="csssssc" />
    <path
       style="display:inline;fill:#dbad8b;fill-opacity:1;fill-rule:evenodd;stroke:none;stroke-width:1px;stroke-linecap:butt;stroke-linejoin:miter;stroke-opacity:1"
       d="m 626.78375,715.8718 c 6.31761,-1.38472 10.60029,-0.85445 19.07796,-1.20857 8.47767,-0.35411 17.26124,-0.62034 24.80244,-1.65349 7.5412,-1.03314 13.84002,-2.83321 17.3482,-6.255 14.03272,-13.68718 34.796,32.29942 34.796,32.29942 0,0 -5.07756,29.41512 -23.20895,39.29111 -11.8267,6.44189 -7.02041,10.04748 -20.73825,29.87794 -5.80795,8.39596 -7.83309,25.0248 -34.9078,25.0463 -27.0747,0.0215 -24.93834,-29.42134 -24.52932,-53.34788 0.26798,-15.67596 16.77604,-36.70993 16.77604,-36.70993 0,0 -1.10697,1.09056 -7.91957,-1.49806"
       id="path4280-3"
       inkscape:connector-curvature="0"
       sodipodi:nodetypes="cssscsssscc" />
    <path
       style="display:inline;fill:#0d3076;fill-opacity:1;fill-rule:evenodd;stroke:none;stroke-width:1px;stroke-linecap:butt;stroke-linejoin:miter;stroke-opacity:1"
       d="m 636.554,313.85804 c 11.48977,1.09356 130.19405,60.02042 183.99346,203.80529 12.7244,34.00736 -64.88823,210.7994 -88.84465,221.58532 -23.95641,10.78594 -36.83796,-12.43109 -52.53705,-32.66716 -11.16974,-14.39776 52.5082,-152.58043 60.71306,-168.27217 8.20485,-15.69173 -53.31514,-82.07982 -100.96752,-89.6186 -47.65238,-7.53878 -3.59402,-126.73386 -2.3573,-134.83268 z"
       id="path4322"
       inkscape:connector-curvature="0"
       sodipodi:nodetypes="cssszzc" />
  </g>
  <g
     inkscape:groupmode="layer"
     id="layer2"
     inkscape:label="head"
     style="display:inline">
    <rect
       style="color:#000000;clip-rule:nonzero;display:inline;overflow:visible;visibility:visible;opacity:1;isolation:auto;mix-blend-mode:normal;color-interpolation:sRGB;color-interpolation-filters:linearRGB;solid-color:#000000;solid-opacity:1;fill:#e6b692;fill-opacity:1;fill-rule:evenodd;stroke:none;stroke-width:5;stroke-linecap:butt;stroke-linejoin:miter;stroke-miterlimit:4;stroke-dasharray:none;stroke-dashoffset:0;stroke-opacity:1;color-rendering:auto;image-rendering:auto;shape-rendering:auto;text-rendering:auto;enable-background:accumulate"
       id="rect4241"
       width="163.5"
       height="261"
       x="378.5"
       y="35.499996"
       ry="63.172264" />
    <rect
       style="color:#000000;clip-rule:nonzero;display:inline;overflow:visible;visibility:visible;opacity:1;isolation:auto;mix-blend-mode:normal;color-interpolation:sRGB;color-interpolation-filters:linearRGB;solid-color:#000000;solid-opacity:1;fill:#e6b692;fill-opacity:1;fill-rule:evenodd;stroke:none;stroke-width:5;stroke-linecap:butt;stroke-linejoin:miter;stroke-miterlimit:4;stroke-dasharray:none;stroke-dashoffset:0;stroke-opacity:1;color-rendering:auto;image-rendering:auto;shape-rendering:auto;text-rendering:auto;enable-background:accumulate"
       id="rect4241-3"
       width="193.5"
       height="178.5"
       x="383"
       y="49"
       ry="43.204018" />
    <circle
       style="display:inline;fill:#50626e;fill-opacity:1;fill-rule:evenodd;stroke:none;stroke-width:1px;stroke-linecap:butt;stroke-linejoin:miter;stroke-opacity:1"
       id="path4968"
       cx="467.88004"
       cy="177.10297"
       r="14.229628" />
    <circle
       style="display:inline;fill:#50626e;fill-opacity:1;fill-rule:evenodd;stroke:none;stroke-width:1px;stroke-linecap:butt;stroke-linejoin:miter;stroke-opacity:1"
       id="path4968-7"
       cx="406.99799"
       cy="177.5701"
       r="14.229628" />
    <path
       style="color:#000000;clip-rule:nonzero;display:inline;overflow:visible;visibility:visible;opacity:1;isolation:auto;mix-blend-mode:normal;color-interpolation:sRGB;color-interpolation-filters:linearRGB;solid-color:#000000;solid-opacity:1;fill:#854d34;fill-opacity:1;fill-rule:evenodd;stroke:none;stroke-width:1px;stroke-linecap:butt;stroke-linejoin:miter;stroke-miterlimit:4;stroke-dasharray:none;stroke-dashoffset:0;stroke-opacity:1;color-rendering:auto;image-rendering:auto;shape-rendering:auto;text-rendering:auto;enable-background:accumulate"
       d="m 455.90672,143.05584 27.24602,0 c 3.7736,0 6.81158,3.03793 6.81158,6.81151 0,3.77358 -3.03798,6.81152 -6.81158,6.81152 l -27.24602,0 c -3.7736,0 -6.81146,-3.03794 -6.81146,-6.81152 0,-3.77358 3.03786,-6.81151 6.81146,-6.81151 z"
       id="rect4985"
       inkscape:connector-curvature="0" />
    <path
       style="color:#000000;clip-rule:nonzero;display:inline;overflow:visible;visibility:visible;opacity:1;isolation:auto;mix-blend-mode:normal;color-interpolation:sRGB;color-interpolation-filters:linearRGB;solid-color:#000000;solid-opacity:1;fill:#854d34;fill-opacity:1;fill-rule:evenodd;stroke:none;stroke-width:1px;stroke-linecap:butt;stroke-linejoin:miter;stroke-miterlimit:4;stroke-dasharray:none;stroke-dashoffset:0;stroke-opacity:1;color-rendering:auto;image-rendering:auto;shape-rendering:auto;text-rendering:auto;enable-background:accumulate"
       d="m 387.79154,143.62344 27.24612,0 c 3.77361,0 6.81149,3.03796 6.81149,6.81154 0,3.77358 -3.03788,6.81151 -6.81149,6.81151 l -27.24612,0 c -3.7736,0 -6.81147,-3.03793 -6.81147,-6.81151 0,-3.77358 3.03787,-6.81154 6.81147,-6.81154 z"
       id="rect4985-3"
       inkscape:connector-curvature="0" />
    <rect
       style="color:#000000;clip-rule:nonzero;display:inline;overflow:visible;visibility:visible;opacity:1;isolation:auto;mix-blend-mode:normal;color-interpolation:sRGB;color-interpolation-filters:linearRGB;solid-color:#000000;solid-opacity:1;fill:#d69e79;fill-opacity:1;fill-rule:evenodd;stroke:none;stroke-width:1px;stroke-linecap:butt;stroke-linejoin:miter;stroke-miterlimit:4;stroke-dasharray:none;stroke-dashoffset:0;stroke-opacity:1;color-rendering:auto;image-rendering:auto;shape-rendering:auto;text-rendering:auto;enable-background:accumulate"
       id="rect5008"
       width="28.835848"
       height="14.417924"
       x="412.53976"
       y="209.07065"
       ry="6.1791148" />
    <path
       style="display:inline;fill:#d29669;fill-opacity:1;fill-rule:evenodd;stroke:none;stroke-width:1px;stroke-linecap:butt;stroke-linejoin:miter;stroke-opacity:1"
       d="m 436.6074,240.68755 18.73173,0 c 0,0 -2.83814,10.78491 -18.73173,13.05542 -15.89347,2.27049 -19.86694,-11.92018 -19.86694,-11.92018 z"
       id="path5010"
       inkscape:connector-curvature="0" />
    <path
       style="display:inline;fill:#864e34;fill-opacity:1;fill-rule:evenodd;stroke:none;stroke-width:1px;stroke-linecap:butt;stroke-linejoin:miter;stroke-opacity:1"
       d="m 505.62026,93.331012 c 0,0 -50.59753,21.040548 -71.81977,18.339028 -11.15388,-1.41985 -33.59314,-2.29237 -53.28554,-10.31568 -17.87544,-7.282974 -23.74684,-7.45025 -23.74684,-7.45025 l 20.27172,-4.584757 -17.95504,-9.742602 c 0,0 19.69253,-1.719275 21.43016,-5.157845 1.73749,-3.438591 1.73749,-22.923805 20.27169,-30.947132 18.53408,-8.023327 52.7064,-12.608074 75.87406,-12.034985 23.16752,0.573098 70.08212,8.023327 74.71559,10.888798 4.63359,2.865472 10.42549,3.43856 11.00467,-0.573098 0.57917,-4.011658 5.79192,6.87715 3.47512,10.3157 -2.31679,3.438571 3.47513,4.011679 5.79192,1.719296 2.3168,-2.292384 4.63357,8.023317 0.57916,10.888809 -4.05428,2.865461 11.00466,13.75427 9.84633,21.777587 -1.15846,8.023297 -5.99897,86.073869 -5.99897,86.073869 0,0 -23.53976,-5.26753 -31.64848,10.7791 -8.10871,16.04668 -7.23995,-8.02331 -10.4255,-24.64306 -3.18551,-16.61972 -26.06361,-29.22781 -30.11788,-30.37401 -4.05444,-1.14617 10.42536,-8.59641 11.00463,-12.60807 0.57919,-4.01167 -17.9549,-1.71927 -17.9549,-1.71927 0,0 13.90052,-12.60808 14.47968,-15.473583 0.57929,-2.865452 -5.79181,-5.157845 -5.79181,-5.157845 z"
       id="path5013"
       inkscape:connector-curvature="0"
       sodipodi:nodetypes="csscccssssssssscszsscsc" />
  </g>
  <g
     inkscape:groupmode="layer"
     id="layer7"
     inkscape:label="clip"
     style="display:none" />
</svg>
