<?xml version="1.0" encoding="UTF-8" standalone="no"?>
<!-- Created with Inkscape (http://www.inkscape.org/) -->

<svg
   xmlns:dc="http://purl.org/dc/elements/1.1/"
   xmlns:cc="http://creativecommons.org/ns#"
   xmlns:rdf="http://www.w3.org/1999/02/22-rdf-syntax-ns#"
   xmlns:svg="http://www.w3.org/2000/svg"
   xmlns="http://www.w3.org/2000/svg"
   xmlns:sodipodi="http://sodipodi.sourceforge.net/DTD/sodipodi-0.dtd"
   xmlns:inkscape="http://www.inkscape.org/namespaces/inkscape"
   id="svg4302"
   version="1.1"
   inkscape:version="0.91 r13725"
   width="1000"
   height="1000"
   viewBox="0 0 1000 1000"
   sodipodi:docname="justin.svg"
   inkscape:export-filename="/home/justin/projects/2016-oct-demo/src/resources/favicon.ico"
   inkscape:export-xdpi="2.8800001"
   inkscape:export-ydpi="2.8800001">
  <metadata
     id="metadata4308">
    <rdf:RDF>
      <cc:Work
         rdf:about="">
        <dc:format>image/svg+xml</dc:format>
        <dc:type
           rdf:resource="http://purl.org/dc/dcmitype/StillImage" />
        <dc:title />
      </cc:Work>
    </rdf:RDF>
  </metadata>
  <defs
     id="defs4306">
    <inkscape:perspective
       sodipodi:type="inkscape:persp3d"
       inkscape:vp_x="0 : 500 : 1"
       inkscape:vp_y="0 : 1000 : 0"
       inkscape:vp_z="1000 : 500 : 1"
       inkscape:persp3d-origin="500 : 333.33333 : 1"
       id="perspective4243" />
  </defs>
  <sodipodi:namedview
     pagecolor="#8effff"
     bordercolor="#666666"
     borderopacity="1"
     objecttolerance="10"
     gridtolerance="10"
     guidetolerance="10"
     inkscape:pageopacity="0"
     inkscape:pageshadow="2"
     inkscape:window-width="1920"
     inkscape:window-height="1056"
     id="namedview4304"
     showgrid="false"
     inkscape:zoom="0.5"
     inkscape:cx="459.95593"
     inkscape:cy="808.84513"
     inkscape:window-x="0"
     inkscape:window-y="24"
     inkscape:window-maximized="1"
     inkscape:current-layer="layer1"
     showguides="true"
     inkscape:guide-bbox="true">
    <sodipodi:guide
       position="582.67445,4741.5134"
       orientation="0,1"
       id="guide4408" />
    <sodipodi:guide
       position="499.56583,1013.2946"
       orientation="1,0"
       id="guide4466" />
    <sodipodi:guide
       position="437.76387,500.85337"
       orientation="0,1"
       id="guide4468" />
  </sodipodi:namedview>
  <g
     inkscape:groupmode="layer"
     id="layer1"
     inkscape:label="background"
     style="display:inline"
     transform="translate(0,-3733)">
    <circle
       style="fill:#bbc5d8;fill-opacity:1;fill-rule:evenodd;stroke:none;stroke-width:1px;stroke-linecap:butt;stroke-linejoin:miter;stroke-opacity:1"
       id="path4470"
       cx="499.56583"
       cy="4232.1465"
       r="478.22595" />
  </g>
  <g
     inkscape:groupmode="layer"
     id="layer6"
     inkscape:label="legs">
    <path
       style="fill:#dbdbbb;fill-opacity:1;fill-rule:evenodd;stroke:none;stroke-width:1px;stroke-linecap:butt;stroke-linejoin:miter;stroke-opacity:1"
       clip-path="none"
       d="M 639.87109 763.99023 L 342.49805 767.12109 L 344.15234 861.77344 C 344.15234 861.77344 342.66644 898.47712 341.19141 949.78906 A 478.22595 478.22595 0 0 0 458.86328 975.33398 C 462.07733 962.19305 465.01534 953.47677 467.28516 951.32812 C 476.63422 942.47816 503.03865 945.10962 509.34961 956.33008 C 510.75661 958.83163 512.22615 966.18789 513.74609 976.87109 A 478.22595 478.22595 0 0 0 636.99023 956.78906 C 644.27659 869.27189 638.82813 841.20312 638.82812 841.20312 L 639.87109 763.99023 z "
       id="path4242" />
  </g>
  <g
     inkscape:groupmode="layer"
     id="layer4"
     inkscape:label="torso"
     style="display:inline">
    <path
       style="display:inline;opacity:1;fill:#dbad8b;fill-opacity:1;fill-rule:evenodd;stroke:none;stroke-width:1px;stroke-linecap:butt;stroke-linejoin:miter;stroke-opacity:1"
       d="m 439.33099,325.43838 124.99756,-10.46266 -10.0037,-85.9987 18.01178,-126.70385 -144.38045,-3.12192 z"
       id="path4963"
       inkscape:connector-curvature="0"
       sodipodi:nodetypes="cccccc" />
    <path
       style="fill:#0d3076;fill-opacity:1;fill-rule:evenodd;stroke:none;stroke-width:1px;stroke-linecap:butt;stroke-linejoin:miter;stroke-opacity:1"
       d="m 432.23186,309.06096 c 0,0 -118.94942,35.47614 -129.38357,54.25763 -10.43415,18.78148 25.01514,115.95694 25.04199,135.64406 0.19922,146.04966 -2.50421,292.05207 -2.50421,292.05207 0,0 25.08172,75.43897 70.22189,87.95996 45.14016,12.52098 170.16466,13.66874 184.77248,5.32142 14.60783,-8.34733 61.03874,-90.11107 61.76776,-105.49968 10.53745,-222.42946 8.15755,-274.6167 9.20097,-296.52843 1.04343,-21.91175 42.26613,-120.44878 21.91173,-138.7743 -25.58526,-23.03497 -93.90743,-37.56296 -102.25475,-39.6498 -4.17366,-1.04342 -39.91065,20.08576 -73.56082,21.65088 -33.65016,1.56512 -65.21347,-16.43381 -65.21347,-16.43381 z"
       id="path4282"
       inkscape:connector-curvature="0"
       sodipodi:nodetypes="csscsssssssc" />
    <path
       style="fill:none;fill-rule:evenodd;stroke:#0b1b41;stroke-width:8.19623756;stroke-linecap:butt;stroke-linejoin:miter;stroke-miterlimit:4;stroke-dasharray:none;stroke-opacity:1"
       d="m 495.19641,888.91509 c 2.37025,-162.80615 2.37025,-316.52202 0,-494.29183"
       id="path4284"
       inkscape:connector-curvature="0"
       sodipodi:nodetypes="cc" />
    <path
       style="fill:#c40b29;fill-opacity:1;fill-rule:evenodd;stroke:none;stroke-width:1px;stroke-linecap:butt;stroke-linejoin:miter;stroke-opacity:1"
       d="m 434.31869,311.14779 c 0,0 56.62383,25.41857 133.31489,-7.18817 0,0 -49.0715,83.35753 -67.5797,92.74828 -18.50821,9.39073 -73.03909,-64.6918 -65.73519,-85.56011 z"
       id="path4286"
       inkscape:connector-curvature="0"
       sodipodi:nodetypes="ccsc" />
    <path
       style="display:inline;fill:#dbad8b;fill-opacity:1;fill-rule:evenodd;stroke:none;stroke-width:1px;stroke-linecap:butt;stroke-linejoin:miter;stroke-opacity:1"
       d="m 210.00509,866.76893 c 0,0 -1.25425,29.47535 0.62715,38.88238 1.88141,9.40703 9.81952,66.12703 17.34515,73.02554 7.52562,6.89852 41.87075,25.32535 53.78634,19.05408 11.91556,-6.27147 13.53178,-47.55299 9.14184,-62.60427 -4.38994,-15.05111 9.88686,-0.21464 9.88686,-0.21464 0,0 23.53653,15.85106 21.65512,-1.0817 -1.88141,-16.93258 -42.83042,-50.12863 -45.33895,-69.5699 -2.50855,-19.44128 -67.10351,2.50851 -67.10351,2.50851 z"
       id="path4280"
       inkscape:connector-curvature="0"
       sodipodi:nodetypes="csscscssc" />
    <path
       style="fill:#0d3076;fill-opacity:1;fill-rule:evenodd;stroke:none;stroke-width:1px;stroke-linecap:butt;stroke-linejoin:miter;stroke-opacity:1"
       d="m 304.58989,360.57595 c -38.68008,36.18688 -100.8227,158.95742 -103.76349,304.75532 -2.94079,145.7979 0.0924,151.98559 2.4811,199.59973 1.1795,23.51097 84.65408,19.40974 84.50583,-3.75738 -0.23258,-36.34128 0.82279,-34.11367 -5.60973,-113.60453 -6.43253,-79.49085 1.86321,-154.69903 25.86178,-200.60932 23.99857,-45.91029 36.51954,-46.95371 41.73663,-66.77861 5.21706,-19.8249 2.08683,-110.60208 -14.60784,-115.81916 -16.69464,-5.21707 16.0758,-33.47293 -30.60428,-3.78605 z"
       id="path4305"
       inkscape:connector-curvature="0"
       sodipodi:nodetypes="czsszzssc" />
    <path
       style="fill:#0b1b41;fill-opacity:1;fill-rule:evenodd;stroke:none;stroke-width:1px;stroke-linecap:butt;stroke-linejoin:miter;stroke-opacity:1"
       d="m 560.92426,282.75833 c 13.0441,-0.066 26.47595,-0.26959 30.45965,9.78964 5.29159,13.36179 -19.4482,100.84774 -22.03052,95.31419 -2.58233,-5.53355 -11.46596,-42.52501 -13.3171,-43.86591 -1.34204,-0.97213 -24.59065,25.05407 -24.59065,25.05407 -16.91346,16.32483 -22.64115,23.31492 -30.57408,28.12286 -4.90778,2.97447 62.9117,-82.68919 62.17389,-91.54287 m -124.32036,7.37806 c 0,3.68904 53.06859,84.53283 53.06859,84.53283 -2.13895,-0.0203 -32.30868,-21.68017 -34.81061,-25.35262 -2.83761,-4.16517 -28.95696,-29.39362 -28.95696,-29.39362 0,0 -17.0425,45.42969 -19.14509,44.86412 -3.32309,-0.89387 -1.82129,-80.75227 4.3204,-86.7943 6.1218,-6.02245 15.56328,-5.93267 25.15475,-5.56375"
       id="path4239"
       inkscape:connector-curvature="0"
       sodipodi:nodetypes="cssssscccscssc" />
  </g>
  <g
     inkscape:groupmode="layer"
     id="layer5"
     inkscape:label="bag"
     style="display:inline">
    <path
       style="fill:#1a2015;fill-opacity:1;fill-rule:evenodd;stroke:none;stroke-width:1.77380681px;stroke-linecap:butt;stroke-linejoin:miter;stroke-opacity:1"
       d="m 567.47919,769.26755 5.21709,230.59494 92.864,3.13021 c 0,0 157.55579,-53.21421 155.46896,-119.99282 -2.08685,-66.77861 -3.13026,-183.6412 -19.82492,-186.77143 -8.34732,-1.56512 -33.38929,-31.30246 -89.73375,-12.65141 -56.34444,18.65106 -143.99138,85.69051 -143.99138,85.69051 z"
       id="path4225"
       inkscape:connector-curvature="0"
       sodipodi:nodetypes="cccsssc" />
    <path
       style="fill:#323735;fill-opacity:1;fill-rule:evenodd;stroke:none;stroke-width:1px;stroke-linecap:butt;stroke-linejoin:miter;stroke-opacity:1"
       d="m 662.43003,780.74513 c 0,0 8.34732,218.07396 -1.04341,221.20417 -9.39075,3.1302 -88.69034,-1.0434 -88.69034,-1.0434 0,0 -12.521,-229.55152 -6.26051,-231.63835 6.26051,-2.08683 94.95085,8.34734 95.99426,11.47758 z"
       id="path4227"
       inkscape:connector-curvature="0" />
    <path
       style="fill:#1a2015;fill-opacity:1;fill-rule:evenodd;stroke:none;stroke-width:1px;stroke-linecap:butt;stroke-linejoin:miter;stroke-opacity:1"
       d="m 583.32361,768.70498 c 0,0 -21.90027,-443.02558 33.59285,-448.68814 102.25475,-10.43417 190.58287,382.64455 185.36578,384.73138 -5.21708,2.08683 -36.58852,-20.23018 -48.0661,-22.31701 -11.47757,-2.08683 -55.21688,-393.27725 -110.6926,-343.1112 -39.51293,35.73109 -15.1899,423.71776 -11.01624,435.19534 4.17366,11.47756 -49.18369,-5.81037 -49.18369,-5.81037 z"
       id="path4229"
       inkscape:connector-curvature="0"
       sodipodi:nodetypes="csssssc" />
    <path
       style="display:inline;fill:#dbad8b;fill-opacity:1;fill-rule:evenodd;stroke:none;stroke-width:1px;stroke-linecap:butt;stroke-linejoin:miter;stroke-opacity:1"
       d="m 626.78375,715.8718 c 6.31761,-1.38472 10.60029,-0.85445 19.07796,-1.20857 8.47767,-0.35411 17.26124,-0.62034 24.80244,-1.65349 7.5412,-1.03314 13.84002,-2.83321 17.3482,-6.255 14.03272,-13.68718 34.796,32.29942 34.796,32.29942 0,0 -14.97705,34.36487 -23.20895,39.29111 -11.55611,6.91557 -7.02041,10.04748 -20.73825,29.87794 -5.80795,8.39596 -7.83309,25.0248 -34.9078,25.0463 -27.0747,0.0215 -24.93834,-29.42134 -24.52932,-53.34788 0.26798,-15.67596 16.77604,-36.70993 16.77604,-36.70993 0,0 -1.10697,1.09056 -7.91957,-1.49806"
       id="path4280-3"
       inkscape:connector-curvature="0"
       sodipodi:nodetypes="cssscsssscc" />
    <path
       style="display:inline;fill:#0d3076;fill-opacity:1;fill-rule:evenodd;stroke:none;stroke-width:1px;stroke-linecap:butt;stroke-linejoin:miter;stroke-opacity:1"
       d="m 656.11035,331.49408 c 11.48977,1.09356 115.34481,73.45545 169.14422,217.24032 12.7244,34.00736 -69.83798,187.46487 -93.7944,198.25079 -23.95641,10.78594 -40.37349,-20.91637 -56.07258,-41.15244 -11.16974,-14.39776 63.8219,-120.05352 72.02676,-135.74526 8.20485,-15.69173 -56.85067,-89.85799 -104.50305,-97.39677 -47.65238,-7.53878 11.96233,-133.09782 13.19905,-141.19664 z"
       id="path4322"
       inkscape:connector-curvature="0"
       sodipodi:nodetypes="cssszzc" />
  </g>
  <g
     inkscape:groupmode="layer"
     id="layer2"
     inkscape:label="head"
     style="display:inline">
    <path
       style="display:inline;opacity:1;fill:#e6b692;fill-opacity:1;fill-rule:evenodd;stroke:none;stroke-width:1px;stroke-linecap:butt;stroke-linejoin:miter;stroke-opacity:1"
       d="m 386.81119,73.23781 c 0,0 5.67627,-30.65184 40.86919,-35.19284 35.1928,-4.54101 108.41665,1.13525 108.41665,1.13525 0,0 42.00428,22.13743 42.57188,55.05975 0.56772,32.92233 -6.24387,82.30581 -6.24387,82.30581 0,0 8.51439,1.13525 9.082,17.02877 -1.80595,16.75364 -9.88035,23.7317 -21.56973,34.62523 -13.97672,6.69159 -19.63025,35.34031 -27.12491,38.48309 C 503.10846,289.3829 439.34082,312.93825 416.89545,282.6919 372.87118,210.67428 381.36913,148.52026 386.81119,73.23781 Z"
       id="path4965"
       inkscape:connector-curvature="0"
       sodipodi:nodetypes="cscscccccc" />
    <circle
       style="display:inline;fill:#50626e;fill-opacity:1;fill-rule:evenodd;stroke:none;stroke-width:1px;stroke-linecap:butt;stroke-linejoin:miter;stroke-opacity:1"
       id="path4968"
       cx="467.88004"
       cy="177.10297"
       r="12.479628" />
    <circle
       style="display:inline;fill:#50626e;fill-opacity:1;fill-rule:evenodd;stroke:none;stroke-width:1px;stroke-linecap:butt;stroke-linejoin:miter;stroke-opacity:1"
       id="path4968-7"
       cx="406.99799"
       cy="177.5701"
       r="12.979628" />
    <path
       style="color:#000000;clip-rule:nonzero;display:inline;overflow:visible;visibility:visible;opacity:1;isolation:auto;mix-blend-mode:normal;color-interpolation:sRGB;color-interpolation-filters:linearRGB;solid-color:#000000;solid-opacity:1;fill:#854d34;fill-opacity:1;fill-rule:evenodd;stroke:none;stroke-width:1px;stroke-linecap:butt;stroke-linejoin:miter;stroke-miterlimit:4;stroke-dasharray:none;stroke-dashoffset:0;stroke-opacity:1;color-rendering:auto;image-rendering:auto;shape-rendering:auto;text-rendering:auto;enable-background:accumulate"
       d="m 455.40672,135.80584 27.24602,0 c 3.7736,0 6.81158,3.03793 6.81158,6.81151 0,3.77358 -3.03798,6.81152 -6.81158,6.81152 l -27.24602,0 c -3.7736,0 -6.81146,-3.03794 -6.81146,-6.81152 0,-3.77358 3.03786,-6.81151 6.81146,-6.81151 z"
       id="rect4985"
       inkscape:connector-curvature="0" />
    <path
       style="color:#000000;clip-rule:nonzero;display:inline;overflow:visible;visibility:visible;opacity:1;isolation:auto;mix-blend-mode:normal;color-interpolation:sRGB;color-interpolation-filters:linearRGB;solid-color:#000000;solid-opacity:1;fill:#854d34;fill-opacity:1;fill-rule:evenodd;stroke:none;stroke-width:1px;stroke-linecap:butt;stroke-linejoin:miter;stroke-miterlimit:4;stroke-dasharray:none;stroke-dashoffset:0;stroke-opacity:1;color-rendering:auto;image-rendering:auto;shape-rendering:auto;text-rendering:auto;enable-background:accumulate"
       d="m 386.9717,145.59893 26.97747,-3.81666 c 3.73641,-0.52861 7.16989,2.05385 7.6985,5.79022 0.52861,3.73638 -2.05377,7.1699 -5.79017,7.69851 l -26.97747,3.81666 c -3.7364,0.52861 -7.16987,-2.05382 -7.69847,-5.79019 -0.52861,-3.73638 2.05375,-7.16993 5.79014,-7.69854 z"
       id="rect4985-3"
       inkscape:connector-curvature="0" />
    <path
       style="display:inline;fill:#d29669;fill-opacity:1;fill-rule:evenodd;stroke:none;stroke-width:1px;stroke-linecap:butt;stroke-linejoin:miter;stroke-opacity:1"
       d="m 442.3574,247.43755 18.73173,0 c 0,0 -2.83814,10.78491 -18.73173,13.05542 -15.89347,2.27049 -19.86694,-11.92018 -19.86694,-11.92018 z"
       id="path5010"
       inkscape:connector-curvature="0" />
    <path
       style="display:inline;fill:#864e34;fill-opacity:1;fill-rule:evenodd;stroke:none;stroke-width:1px;stroke-linecap:butt;stroke-linejoin:miter;stroke-opacity:1"
       d="m 507.14809,94.23997 c 0,0 -49.58723,20.83978 -70.38572,18.16404 -10.93117,-1.4063 -32.92238,-2.2705 -52.22158,-10.21725 -17.51852,-7.21348 -23.27268,-7.37916 -23.27268,-7.37916 l 19.86695,-4.54101 -17.59653,-9.64964 c 0,0 19.29933,-1.70287 21.00226,-5.10863 1.7028,-3.40578 1.7028,-22.70507 19.86692,-30.65184 18.16401,-7.94677 51.654,-12.48777 74.35907,-11.92015 22.70492,0.56763 68.68277,7.94677 73.22372,10.7849 4.54107,2.83813 10.21732,3.40575 10.78494,-0.56763 0.5676,-3.97338 5.67627,6.81153 3.40573,10.21727 -2.27053,3.40576 3.40574,3.9734 5.67627,1.70289 2.27054,-2.27051 4.54105,7.94676 0.5676,10.78491 -3.97333,2.83812 10.78492,13.62303 9.64972,21.56979 -1.13533,7.94674 -7.37918,90.25257 -7.37918,90.25257 0,0 -21.56974,-10.21727 -29.51655,5.67625 -7.9468,15.89356 -7.09539,-7.94676 -10.21733,-24.40792 -3.12191,-16.46114 -25.54319,-28.94893 -29.51651,-30.08419 -3.97349,-1.13523 10.21719,-8.51439 10.7849,-12.48777 0.56762,-3.97339 -17.59639,-1.70286 -17.59639,-1.70286 0,0 13.62296,-12.48778 14.19056,-15.32594 0.56772,-2.83811 -5.67617,-5.10863 -5.67617,-5.10863 z"
       id="path5013"
       inkscape:connector-curvature="0"
       sodipodi:nodetypes="csscccssssssssscszsscsc" />
    <path
       style="fill:#d29669;fill-opacity:1;fill-rule:evenodd;stroke:none;stroke-width:1px;stroke-linecap:butt;stroke-linejoin:miter;stroke-opacity:1"
       d="m 449.18841,225.3229 c 0,0 -16.69959,17.47137 -30.32058,7.34251 -13.62098,-10.12886 3.13421,2.88128 30.32058,-7.34251 z"
       id="path4912"
       inkscape:connector-curvature="0" />
    <path
       style="fill:#d29669;fill-opacity:1;fill-rule:evenodd;stroke:none;stroke-width:1px;stroke-linecap:butt;stroke-linejoin:miter;stroke-opacity:1"
       d="m 453.25,221.25 c 0,0 -13.13909,-17.75825 -12.88909,-30.00825 C 440.61091,178.99175 445,176.5 447.75,176.5 c 2.75,0 -1.25,32.75 5.5,44.75 z"
       id="path4919"
       inkscape:connector-curvature="0"
       sodipodi:nodetypes="cssc" />
  </g>
  <g
     inkscape:groupmode="layer"
     id="layer7"
     inkscape:label="clip"
     style="display:none" />
</svg>
