<?xml version="1.0" encoding="UTF-8" standalone="no"?>
<!-- Created with Inkscape (http://www.inkscape.org/) -->

<svg
   xmlns:dc="http://purl.org/dc/elements/1.1/"
   xmlns:cc="http://creativecommons.org/ns#"
   xmlns:rdf="http://www.w3.org/1999/02/22-rdf-syntax-ns#"
   xmlns:svg="http://www.w3.org/2000/svg"
   xmlns="http://www.w3.org/2000/svg"
   xmlns:sodipodi="http://sodipodi.sourceforge.net/DTD/sodipodi-0.dtd"
   xmlns:inkscape="http://www.inkscape.org/namespaces/inkscape"
   width="2000"
   height="2000"
   viewBox="0 0 2000 2000"
   id="svg2"
   version="1.1"
   inkscape:version="0.91 r13725"
   sodipodi:docname="timesheet-cover.svg">
  <defs
     id="defs4">
    <clipPath
       clipPathUnits="userSpaceOnUse"
       id="clipPath4378">
      <rect
         style="color:#000000;clip-rule:nonzero;display:inline;overflow:visible;visibility:visible;opacity:1;isolation:auto;mix-blend-mode:normal;color-interpolation:sRGB;color-interpolation-filters:linearRGB;solid-color:#000000;solid-opacity:1;fill:#0b1b41;fill-opacity:1;fill-rule:evenodd;stroke:none;stroke-width:1px;stroke-linecap:butt;stroke-linejoin:miter;stroke-miterlimit:4;stroke-dasharray:none;stroke-dashoffset:0;stroke-opacity:1;color-rendering:auto;image-rendering:auto;shape-rendering:auto;text-rendering:auto;enable-background:accumulate"
         id="rect4380"
         width="1000"
         height="1600"
         x="0"
         y="2.2617187e-05"
         ry="0" />
    </clipPath>
    <clipPath
       clipPathUnits="userSpaceOnUse"
       id="clipPath4382">
      <rect
         style="color:#000000;clip-rule:nonzero;display:inline;overflow:visible;visibility:visible;opacity:1;isolation:auto;mix-blend-mode:normal;color-interpolation:sRGB;color-interpolation-filters:linearRGB;solid-color:#000000;solid-opacity:1;fill:#0b1b41;fill-opacity:1;fill-rule:evenodd;stroke:none;stroke-width:1px;stroke-linecap:butt;stroke-linejoin:miter;stroke-miterlimit:4;stroke-dasharray:none;stroke-dashoffset:0;stroke-opacity:1;color-rendering:auto;image-rendering:auto;shape-rendering:auto;text-rendering:auto;enable-background:accumulate"
         id="rect4384"
         width="1000"
         height="1600"
         x="0"
         y="0"
         ry="0" />
    </clipPath>
  </defs>
  <sodipodi:namedview
     id="base"
     pagecolor="#b9ffff"
     bordercolor="#d96666"
     borderopacity="1"
     inkscape:pageopacity="0"
     inkscape:pageshadow="2"
     inkscape:zoom="0.24748737"
     inkscape:cx="166.30367"
     inkscape:cy="712.41623"
     inkscape:document-units="px"
     inkscape:current-layer="layer2"
     showgrid="true"
     inkscape:window-width="1920"
     inkscape:window-height="1056"
     inkscape:window-x="0"
     inkscape:window-y="24"
     inkscape:window-maximized="1"
     units="px"
     inkscape:showpageshadow="false"
     gridtolerance="10"
     inkscape:snap-tangential="true"
     inkscape:snap-perpendicular="true">
    <inkscape:grid
       type="xygrid"
       id="grid4155"
       empspacing="10"
       spacingx="9.9999999"
       spacingy="10" />
  </sodipodi:namedview>
  <metadata
     id="metadata7">
    <rdf:RDF>
      <cc:Work
         rdf:about="">
        <dc:format>image/svg+xml</dc:format>
        <dc:type
           rdf:resource="http://purl.org/dc/dcmitype/StillImage" />
        <dc:title />
      </cc:Work>
    </rdf:RDF>
  </metadata>
  <g
     inkscape:groupmode="layer"
     id="layer2"
     inkscape:label="background"
     style="display:inline"
     transform="translate(0,1000)">
    <rect
       style="color:#000000;clip-rule:nonzero;display:inline;overflow:visible;visibility:visible;opacity:1;isolation:auto;mix-blend-mode:normal;color-interpolation:sRGB;color-interpolation-filters:linearRGB;solid-color:#000000;solid-opacity:1;fill:#0d3076;fill-opacity:1;fill-rule:evenodd;stroke:none;stroke-width:1px;stroke-linecap:butt;stroke-linejoin:miter;stroke-miterlimit:4;stroke-dasharray:none;stroke-dashoffset:0;stroke-opacity:1;color-rendering:auto;image-rendering:auto;shape-rendering:auto;text-rendering:auto;enable-background:accumulate"
       id="rect4266"
       width="1997.1428"
       height="2000"
       x="0"
       y="-1000"
       ry="0" />
  </g>
  <g
     inkscape:label="glow"
     inkscape:groupmode="layer"
     id="layer1"
     transform="translate(0,947.63784)"
     style="display:inline;opacity:1">
    <rect
       style="color:#000000;clip-rule:nonzero;display:inline;overflow:visible;visibility:visible;opacity:1;isolation:auto;mix-blend-mode:normal;color-interpolation:sRGB;color-interpolation-filters:linearRGB;solid-color:#000000;solid-opacity:1;fill:#0d3076;fill-opacity:1;fill-rule:evenodd;stroke:none;stroke-width:1px;stroke-linecap:butt;stroke-linejoin:miter;stroke-miterlimit:4;stroke-dasharray:none;stroke-dashoffset:0;stroke-opacity:1;color-rendering:auto;image-rendering:auto;shape-rendering:auto;text-rendering:auto;enable-background:accumulate"
       id="rect6140"
       width="1800"
       height="600"
       x="99.999992"
       y="-247.63783"
       ry="200" />
  </g>
  <g
     inkscape:groupmode="layer"
     id="layer3"
     inkscape:label="thing"
     transform="translate(0,400)">
    <g
       transform="matrix(7.3187787,0,0,7.3187787,-1934.7462,-4706.0867)"
       style="font-style:normal;font-weight:normal;font-size:40px;line-height:125%;font-family:sans-serif;letter-spacing:0px;word-spacing:0px;fill:#ffffff;fill-opacity:1;stroke:none;stroke-width:1px;stroke-linecap:butt;stroke-linejoin:miter;stroke-opacity:1"
       id="flowRoot6175">
      <path
         d="m 307.32422,711.78403 0,6.21094 7.40234,0 0,2.79297 -7.40234,0 0,11.875 q 0,2.67578 0.72265,3.4375 0.74219,0.76171 2.98829,0.76171 l 3.6914,0 0,3.00782 -3.6914,0 q -4.16016,0 -5.74219,-1.54297 -1.58203,-1.5625 -1.58203,-5.66406 l 0,-11.875 -2.63672,0 0,-2.79297 2.63672,0 0,-6.21094 3.61328,0 z"
         style=""
         id="path6184" />
      <path
         d="m 319.47266,717.99497 3.59375,0 0,21.875 -3.59375,0 0,-21.875 z m 0,-8.51563 3.59375,0 0,4.55078 -3.59375,0 0,-4.55078 z"
         style=""
         id="path6186" />
      <path
         d="m 347.59766,722.19419 q 1.34765,-2.42188 3.22265,-3.57422 1.875,-1.15235 4.41406,-1.15235 3.41797,0 5.27344,2.40235 1.85547,2.38281 1.85547,6.79687 l 0,13.20313 -3.61328,0 0,-13.08594 q 0,-3.14453 -1.11328,-4.66797 -1.11328,-1.52344 -3.39844,-1.52344 -2.79297,0 -4.41406,1.85547 -1.6211,1.85547 -1.6211,5.0586 l 0,12.36328 -3.61328,0 0,-13.08594 q 0,-3.16406 -1.11328,-4.66797 -1.11328,-1.52344 -3.4375,-1.52344 -2.7539,0 -4.375,1.875 -1.62109,1.85547 -1.62109,5.03907 l 0,12.36328 -3.61328,0 0,-21.875 3.61328,0 0,3.39843 q 1.23047,-2.01171 2.94922,-2.96875 1.71875,-0.95703 4.08203,-0.95703 2.38281,0 4.04297,1.21094 1.67968,1.21094 2.48047,3.51563 z"
         style=""
         id="path6188" />
      <path
         d="m 388.26172,728.03403 0,1.75781 -16.52344,0 q 0.23438,3.71094 2.22656,5.66406 2.01172,1.9336 5.58594,1.9336 2.07031,0 4.00391,-0.50781 1.95312,-0.50782 3.86718,-1.52344 l 0,3.39844 q -1.93359,0.82031 -3.96484,1.25 -2.03125,0.42968 -4.12109,0.42968 -5.23438,0 -8.30078,-3.04687 -3.04688,-3.04688 -3.04688,-8.24219 0,-5.37109 2.89063,-8.51562 2.91015,-3.16407 7.83203,-3.16407 4.41406,0 6.97265,2.85157 2.57813,2.83203 2.57813,7.71484 z m -3.59375,-1.05469 q -0.0391,-2.94922 -1.66016,-4.70703 -1.60156,-1.75781 -4.25781,-1.75781 -3.00781,0 -4.82422,1.69922 -1.79687,1.69922 -2.07031,4.78515 l 12.8125,-0.0195 z"
         style=""
         id="path6190" />
      <path
         d="m 408.10547,718.6395 0,3.39844 q -1.52344,-0.78125 -3.16406,-1.17188 -1.64063,-0.39062 -3.39844,-0.39062 -2.67578,0 -4.02344,0.82031 -1.32812,0.82031 -1.32812,2.46094 0,1.25 0.95703,1.97265 0.95703,0.70313 3.84765,1.34766 l 1.23047,0.27344 q 3.82813,0.82031 5.42969,2.32421 1.62109,1.48438 1.62109,4.16016 0,3.04688 -2.42187,4.82422 -2.40235,1.77734 -6.6211,1.77734 -1.75781,0 -3.67187,-0.35156 -1.89453,-0.33203 -4.00391,-1.01562 l 0,-3.71094 q 1.99219,1.03515 3.92578,1.5625 1.9336,0.50781 3.82813,0.50781 2.53906,0 3.90625,-0.85937 1.36719,-0.87891 1.36719,-2.46094 0,-1.46485 -0.9961,-2.2461 -0.97656,-0.78125 -4.3164,-1.5039 l -1.25,-0.29297 q -3.33985,-0.70313 -4.82422,-2.14844 -1.48438,-1.46484 -1.48438,-4.0039 0,-3.08594 2.1875,-4.76563 2.1875,-1.67969 6.21094,-1.67969 1.99219,0 3.75,0.29297 1.75781,0.29297 3.24219,0.87891 z"
         style=""
         id="path6192" />
      <path
         d="m 433.20312,726.66684 0,13.20313 -3.59375,0 0,-13.08594 q 0,-3.10547 -1.21093,-4.64844 -1.21094,-1.54297 -3.63282,-1.54297 -2.91015,0 -4.58984,1.85547 -1.67969,1.85547 -1.67969,5.0586 l 0,12.36328 -3.61328,0 0,-30.39063 3.61328,0 0,11.91406 q 1.28907,-1.97265 3.02735,-2.94921 1.75781,-0.97657 4.04297,-0.97657 3.76953,0 5.70312,2.34375 1.93359,2.32422 1.93359,6.85547 z"
         style=""
         id="path6194" />
      <path
         d="m 459.12109,728.03403 0,1.75781 -16.52343,0 q 0.23437,3.71094 2.22656,5.66406 2.01172,1.9336 5.58594,1.9336 2.07031,0 4.0039,-0.50781 1.95313,-0.50782 3.86719,-1.52344 l 0,3.39844 q -1.93359,0.82031 -3.96484,1.25 -2.03125,0.42968 -4.1211,0.42968 -5.23437,0 -8.30078,-3.04687 -3.04687,-3.04688 -3.04687,-8.24219 0,-5.37109 2.89062,-8.51562 2.91016,-3.16407 7.83203,-3.16407 4.41406,0 6.97266,2.85157 2.57812,2.83203 2.57812,7.71484 z m -3.59375,-1.05469 q -0.0391,-2.94922 -1.66015,-4.70703 -1.60157,-1.75781 -4.25782,-1.75781 -3.00781,0 -4.82421,1.69922 -1.79688,1.69922 -2.07032,4.78515 l 12.8125,-0.0195 z"
         style=""
         id="path6196" />
      <path
         d="m 483.73047,728.03403 0,1.75781 -16.52344,0 q 0.23438,3.71094 2.22656,5.66406 2.01172,1.9336 5.58594,1.9336 2.07031,0 4.00391,-0.50781 1.95312,-0.50782 3.86718,-1.52344 l 0,3.39844 q -1.93359,0.82031 -3.96484,1.25 -2.03125,0.42968 -4.12109,0.42968 -5.23438,0 -8.30078,-3.04687 -3.04688,-3.04688 -3.04688,-8.24219 0,-5.37109 2.89063,-8.51562 2.91015,-3.16407 7.83203,-3.16407 4.41406,0 6.97265,2.85157 2.57813,2.83203 2.57813,7.71484 z m -3.59375,-1.05469 q -0.0391,-2.94922 -1.66016,-4.70703 -1.60156,-1.75781 -4.25781,-1.75781 -3.00781,0 -4.82422,1.69922 -1.79687,1.69922 -2.07031,4.78515 l 12.8125,-0.0195 z"
         style=""
         id="path6198" />
      <path
         d="m 493.18359,711.78403 0,6.21094 7.40235,0 0,2.79297 -7.40235,0 0,11.875 q 0,2.67578 0.72266,3.4375 0.74219,0.76171 2.98828,0.76171 l 3.69141,0 0,3.00782 -3.69141,0 q -4.16016,0 -5.74219,-1.54297 -1.58203,-1.5625 -1.58203,-5.66406 l 0,-11.875 -2.63672,0 0,-2.79297 2.63672,0 0,-6.21094 3.61328,0 z"
         style=""
         id="path6200" />
    </g>
  </g>
</svg>
