<?xml version="1.0" encoding="UTF-8" standalone="no"?>
<!-- Created with Inkscape (http://www.inkscape.org/) -->

<svg
   xmlns:dc="http://purl.org/dc/elements/1.1/"
   xmlns:cc="http://creativecommons.org/ns#"
   xmlns:rdf="http://www.w3.org/1999/02/22-rdf-syntax-ns#"
   xmlns:svg="http://www.w3.org/2000/svg"
   xmlns="http://www.w3.org/2000/svg"
   xmlns:sodipodi="http://sodipodi.sourceforge.net/DTD/sodipodi-0.dtd"
   xmlns:inkscape="http://www.inkscape.org/namespaces/inkscape"
   id="svg4651"
   version="1.1"
   inkscape:version="0.91 r13725"
   width="1000"
   height="1000"
   viewBox="0 0 1000 1000"
   sodipodi:docname="twitter.svg">
  <metadata
     id="metadata4657">
    <rdf:RDF>
      <cc:Work
         rdf:about="">
        <dc:format>image/svg+xml</dc:format>
        <dc:type
           rdf:resource="http://purl.org/dc/dcmitype/StillImage" />
        <dc:title></dc:title>
      </cc:Work>
    </rdf:RDF>
  </metadata>
  <defs
     id="defs4655" />
  <sodipodi:namedview
     pagecolor="#62ffff"
     bordercolor="#666666"
     borderopacity="1"
     objecttolerance="10"
     gridtolerance="10"
     guidetolerance="10"
     inkscape:pageopacity="0"
     inkscape:pageshadow="2"
     inkscape:window-width="1920"
     inkscape:window-height="1056"
     id="namedview4653"
     showgrid="false"
     showguides="true"
     inkscape:guide-bbox="true"
     inkscape:zoom="0.4609375"
     inkscape:cx="295.72969"
     inkscape:cy="243.12307"
     inkscape:window-x="0"
     inkscape:window-y="24"
     inkscape:window-maximized="1"
     inkscape:current-layer="svg4651">
    <sodipodi:guide
       position="347.11864,501.15254"
       orientation="0,1"
       id="guide5203" />
    <sodipodi:guide
       position="501.15254,1230.1017"
       orientation="1,0"
       id="guide5205" />
  </sodipodi:namedview>
  <path
     style="fill:#ffffff;fill-opacity:1;fill-rule:evenodd;stroke:none;stroke-width:3;stroke-linecap:butt;stroke-linejoin:miter;stroke-miterlimit:4;stroke-dasharray:none;stroke-opacity:1"
     d="m 495.32222,317.05644 c 0,0 -30.4205,-160.26408 112.77842,-230.008617 143.19891,-69.744557 228.5247,37.098167 234.4604,40.807957 5.9357,3.70983 122.42393,-31.904397 130.58555,-43.775817 -10.75819,43.630957 -47.02711,74.601747 -80.87401,106.100747 0,0 74.19634,-7.41964 101.64893,-25.22676 -7.15141,27.21512 -61.90842,76.0493 -96.45519,104.61683 0,0 27.48637,141.87849 -100.16505,357.6263 0,0 -70.9895,106.6212 -175.91897,168.52959 -104.92945,61.90837 -219.30255,70.30272 -223.49972,70.30272 -4.19718,0 -204.61245,39.87319 -386.140414,-81.84496 0,0 95.485814,-3.14789 98.633704,-4.19718 3.14787,-1.04928 129.06322,-14.69012 197.26737,-80.79567 0,0 -128.01394,-3.14789 -187.82374,-141.65478 0,0 79.74639,4.19718 87.09146,-6.29576 0,0 -136.408282,-16.78873 -158.443467,-202.51386 0,0 52.464717,27.28167 91.288617,25.18307 0,0 -142.7040671,-88.14074 -64.006967,-266.52081 0,0 170.745527,209.47508 419.573077,209.667 z"
     id="path5201"
     inkscape:connector-curvature="0"
     sodipodi:nodetypes="csscccccsscsccccccc" />
</svg>
